<?xml version="1.0" encoding="utf-8" standalone="no"?>
<!DOCTYPE svg PUBLIC "-//W3C//DTD SVG 1.1//EN"
  "http://www.w3.org/Graphics/SVG/1.1/DTD/svg11.dtd">
<svg xmlns:xlink="http://www.w3.org/1999/xlink" width="460.8pt" height="302.4pt" viewBox="0 0 460.8 302.4" xmlns="http://www.w3.org/2000/svg" version="1.1">
 <metadata>
  <rdf:RDF xmlns:dc="http://purl.org/dc/elements/1.1/" xmlns:cc="http://creativecommons.org/ns#" xmlns:rdf="http://www.w3.org/1999/02/22-rdf-syntax-ns#">
   <cc:Work>
    <dc:type rdf:resource="http://purl.org/dc/dcmitype/StillImage"/>
    <dc:date>2026-09-24T20:42:25.051350</dc:date>
    <dc:format>image/svg+xml</dc:format>
    <dc:creator>
     <cc:Agent>
      <dc:title>Matplotlib v3.11.2, https://matplotlib.org/</dc:title>
     </cc:Agent>
    </dc:creator>
   </cc:Work>
  </rdf:RDF>
 </metadata>
 <defs>
  <style type="text/css">*{stroke-linejoin: round; stroke-linecap: butt}</style>
 </defs>
 <g id="figure_1">
  <g id="patch_1">
   <path d="M 0 302.4 
L 460.8 302.4 
L 460.8 0 
L 0 0 
z
" style="fill: #ffffff"/>
  </g>
  <g id="axes_1">
   <g id="patch_2">
    <path d="M 53.842109 182.971171 
L 447.340819 182.971171 
L 447.340819 23.64 
L 53.842109 23.64 
z
" style="fill: #ffffff"/>
   </g>
   <g id="matplotlib.axis_1">
    <g id="xtick_1">
     <g id="line2d_1">
      <defs>
       <path id="mceaa14d1d5" d="M 0 0 
L 0 3.5 
" style="stroke: #000000; stroke-width: 0.8"/>
      </defs>
      <g>
       <use xlink:href="#mceaa14d1d5" x="71.728414" y="182.971171" style="stroke: #000000; stroke-width: 0.8"/>
      </g>
     </g>
    </g>
    <g id="xtick_2">
     <g id="line2d_2">
      <g>
       <use xlink:href="#mceaa14d1d5" x="116.444177" y="182.971171" style="stroke: #000000; stroke-width: 0.8"/>
      </g>
     </g>
    </g>
    <g id="xtick_3">
     <g id="line2d_3">
      <g>
       <use xlink:href="#mceaa14d1d5" x="161.651321" y="182.971171" style="stroke: #000000; stroke-width: 0.8"/>
      </g>
     </g>
    </g>
    <g id="xtick_4">
     <g id="line2d_4">
      <g>
       <use xlink:href="#mceaa14d1d5" x="206.858466" y="182.971171" style="stroke: #000000; stroke-width: 0.8"/>
      </g>
     </g>
    </g>
    <g id="xtick_5">
     <g id="line2d_5">
      <g>
       <use xlink:href="#mceaa14d1d5" x="251.082846" y="182.971171" style="stroke: #000000; stroke-width: 0.8"/>
      </g>
     </g>
    </g>
    <g id="xtick_6">
     <g id="line2d_6">
      <g>
       <use xlink:href="#mceaa14d1d5" x="295.798609" y="182.971171" style="stroke: #000000; stroke-width: 0.8"/>
      </g>
     </g>
    </g>
    <g id="xtick_7">
     <g id="line2d_7">
      <g>
       <use xlink:href="#mceaa14d1d5" x="341.005753" y="182.971171" style="stroke: #000000; stroke-width: 0.8"/>
      </g>
     </g>
    </g>
    <g id="xtick_8">
     <g id="line2d_8">
      <g>
       <use xlink:href="#mceaa14d1d5" x="386.212898" y="182.971171" style="stroke: #000000; stroke-width: 0.8"/>
      </g>
     </g>
    </g>
    <g id="xtick_9">
     <g id="line2d_9">
      <g>
       <use xlink:href="#mceaa14d1d5" x="430.437278" y="182.971171" style="stroke: #000000; stroke-width: 0.8"/>
      </g>
     </g>
    </g>
   </g>
   <g id="matplotlib.axis_2">
    <g id="ytick_1">
     <g id="line2d_10">
      <defs>
       <path id="me4d7e05a26" d="M 0 0 
L -3.5 0 
" style="stroke: #000000; stroke-width: 0.8"/>
      </defs>
      <g>
       <use xlink:href="#me4d7e05a26" x="53.842109" y="181.551043" style="stroke: #000000; stroke-width: 0.8"/>
      </g>
     </g>
     <g id="text_1">
      <text style="font-size: 9px; font-family: 'DejaVu Sans', 'Bitstream Vera Sans', 'Computer Modern Sans Serif', 'Lucida Grande', 'Verdana', 'Geneva', 'Lucid', 'Arial', 'Helvetica', 'Avant Garde', sans-serif; text-anchor: end" x="46.842109" y="184.969988" transform="rotate(-0 46.842109 184.969988)">4500</text>
     </g>
    </g>
    <g id="ytick_2">
     <g id="line2d_11">
      <g>
       <use xlink:href="#me4d7e05a26" x="53.842109" y="142.839623" style="stroke: #000000; stroke-width: 0.8"/>
      </g>
     </g>
     <g id="text_2">
      <text style="font-size: 9px; font-family: 'DejaVu Sans', 'Bitstream Vera Sans', 'Computer Modern Sans Serif', 'Lucida Grande', 'Verdana', 'Geneva', 'Lucid', 'Arial', 'Helvetica', 'Avant Garde', sans-serif; text-anchor: end" x="46.842109" y="146.258568" transform="rotate(-0 46.842109 146.258568)">5000</text>
     </g>
    </g>
    <g id="ytick_3">
     <g id="line2d_12">
      <g>
       <use xlink:href="#me4d7e05a26" x="53.842109" y="104.128203" style="stroke: #000000; stroke-width: 0.8"/>
      </g>
     </g>
     <g id="text_3">
      <text style="font-size: 9px; font-family: 'DejaVu Sans', 'Bitstream Vera Sans', 'Computer Modern Sans Serif', 'Lucida Grande', 'Verdana', 'Geneva', 'Lucid', 'Arial', 'Helvetica', 'Avant Garde', sans-serif; text-anchor: end" x="46.842109" y="107.547148" transform="rotate(-0 46.842109 107.547148)">5500</text>
     </g>
    </g>
    <g id="ytick_4">
     <g id="line2d_13">
      <g>
       <use xlink:href="#me4d7e05a26" x="53.842109" y="65.416783" style="stroke: #000000; stroke-width: 0.8"/>
      </g>
     </g>
     <g id="text_4">
      <text style="font-size: 9px; font-family: 'DejaVu Sans', 'Bitstream Vera Sans', 'Computer Modern Sans Serif', 'Lucida Grande', 'Verdana', 'Geneva', 'Lucid', 'Arial', 'Helvetica', 'Avant Garde', sans-serif; text-anchor: end" x="46.842109" y="68.835729" transform="rotate(-0 46.842109 68.835729)">6000</text>
     </g>
    </g>
    <g id="ytick_5">
     <g id="line2d_14">
      <g>
       <use xlink:href="#me4d7e05a26" x="53.842109" y="26.705364" style="stroke: #000000; stroke-width: 0.8"/>
      </g>
     </g>
     <g id="text_5">
      <text style="font-size: 9px; font-family: 'DejaVu Sans', 'Bitstream Vera Sans', 'Computer Modern Sans Serif', 'Lucida Grande', 'Verdana', 'Geneva', 'Lucid', 'Arial', 'Helvetica', 'Avant Garde', sans-serif; text-anchor: end" x="46.842109" y="30.124309" transform="rotate(-0 46.842109 30.124309)">6500</text>
     </g>
    </g>
    <g id="text_6">
     <text style="font-size: 9px; font-family: 'DejaVu Sans', 'Bitstream Vera Sans', 'Computer Modern Sans Serif', 'Lucida Grande', 'Verdana', 'Geneva', 'Lucid', 'Arial', 'Helvetica', 'Avant Garde', sans-serif; text-anchor: middle" x="17.775" y="103.305585" transform="rotate(-90 17.775 103.305585)">Close (₹)</text>
    </g>
   </g>
   <g id="line2d_15">
    <path d="M 71.728414 150.953536 
L 72.219796 150.585778 
L 72.711178 155.64536 
L 73.20256 157.27124 
L 73.693942 157.313823 
L 75.168088 156.249259 
L 75.65947 158.734532 
L 76.150852 157.650612 
L 77.133616 162.059843 
L 78.607762 161.274001 
L 80.081908 166.453589 
L 80.57329 168.520779 
L 82.047436 161.939837 
L 82.538818 158.494521 
L 83.0302 156.0828 
L 83.521582 154.905972 
L 84.012964 158.28935 
L 85.487111 158.335804 
L 85.978493 160.18621 
L 86.961257 161.448202 
L 87.452639 162.613416 
L 89.418167 129.379662 
L 89.909549 125.156246 
L 90.400931 137.412282 
L 90.892313 137.667777 
L 92.366459 132.732071 
L 92.857841 131.938487 
L 93.349223 137.884561 
L 93.840605 132.174627 
L 94.331987 136.11932 
L 96.297515 129.050615 
L 96.788897 122.136756 
L 97.280279 121.072192 
L 97.771661 124.203945 
L 99.245807 126.406625 
L 99.737189 123.44133 
L 100.228571 125.047854 
L 100.719953 127.467318 
L 101.211335 128.918996 
L 102.685481 129.84807 
L 103.668245 105.161798 
L 104.159627 108.738733 
L 104.651009 106.950266 
L 106.125155 105.026308 
L 106.616537 102.753948 
L 107.107919 108.82777 
L 107.599301 113.461526 
L 108.090683 112.362122 
L 110.056211 112.191792 
L 110.547593 114.917076 
L 111.038975 113.538949 
L 111.530357 117.266859 
L 113.004503 119.786972 
L 113.495885 115.582912 
L 113.987267 110.190411 
L 114.478649 109.524575 
L 114.970031 106.021192 
L 116.444177 105.94764 
L 116.935559 111.742739 
L 117.426941 108.069026 
L 117.918323 109.838138 
L 118.409705 100.504814 
L 119.883851 98.820868 
L 120.866615 84.342797 
L 121.357997 83.897615 
L 121.849379 81.903977 
L 123.323525 80.15035 
L 123.814907 76.074037 
L 124.797671 75.365618 
L 125.289053 74.866241 
L 126.763199 74.099755 
L 127.254581 69.694395 
L 127.745963 78.617378 
L 128.237345 78.609635 
L 128.728727 75.264969 
L 130.202873 73.344882 
L 131.677019 86.309337 
L 132.168401 87.06808 
L 133.642547 88.806223 
L 134.133929 76.681807 
L 134.625311 78.052191 
L 135.116693 85.186706 
L 135.608075 85.523495 
L 137.082221 92.843824 
L 137.573603 91.2373 
L 138.064985 91.806358 
L 139.047749 86.348048 
L 140.521895 86.127393 
L 141.013277 83.549212 
L 141.504659 78.009608 
L 141.996041 78.052191 
L 142.487423 81.470409 
L 143.961569 81.137491 
L 144.452951 83.665347 
L 144.944333 88.384269 
L 145.435715 78.470274 
L 147.401243 71.444152 
L 147.892625 71.916431 
L 148.384007 71.103491 
L 148.875389 77.030209 
L 149.366771 77.529587 
L 151.823681 64.747076 
L 152.315063 56.958338 
L 152.806445 55.111804 
L 154.280591 60.539145 
L 154.771973 56.818977 
L 155.754737 55.003412 
L 156.246119 49.115405 
L 157.720265 49.06508 
L 158.211647 49.688334 
L 158.703029 51.457446 
L 159.194411 45.74364 
L 159.685793 44.605524 
L 161.159939 39.23625 
L 161.651321 30.882326 
L 162.634085 39.731756 
L 163.125467 49.467679 
L 164.599613 56.102816 
L 165.090995 49.591555 
L 166.073759 65.250324 
L 166.565141 67.081375 
L 168.039287 67.116215 
L 168.530669 60.097834 
L 169.022051 58.440986 
L 170.004815 74.15008 
L 171.478961 82.581427 
L 171.970343 86.553219 
L 172.461725 84.86153 
L 172.953107 95.425876 
L 173.444489 91.012774 
L 174.918635 86.917106 
L 175.410017 91.159878 
L 175.901399 82.256251 
L 176.392781 86.560961 
L 176.884163 89.181724 
L 178.849692 95.991063 
L 179.341074 89.038492 
L 179.832456 89.503029 
L 180.323838 84.993148 
L 181.797984 109.187786 
L 182.289366 140.706624 
L 182.780748 139.239461 
L 183.27213 149.37411 
L 185.237658 149.703158 
L 185.72904 151.147094 
L 186.711804 158.064824 
L 187.203186 154.580796 
L 188.677332 150.276087 
L 189.168714 141.786672 
L 189.660096 144.066775 
L 190.151478 148.750857 
L 190.64286 147.395957 
L 192.117006 150.020591 
L 192.608388 149.838648 
L 193.09977 154.333043 
L 193.591152 152.749746 
L 194.082534 152.838783 
L 195.55668 158.866151 
L 196.048062 159.311332 
L 196.539444 151.394847 
L 197.030826 156.129253 
L 197.522208 154.445306 
L 198.996354 154.724029 
L 199.487736 160.124272 
L 199.979118 159.667477 
L 200.4705 159.427466 
L 200.961882 166.213578 
L 202.436028 165.729685 
L 202.92741 162.652127 
L 204.401556 160.701072 
L 205.875702 158.366773 
L 206.367084 161.208191 
L 206.858466 158.730661 
L 207.349848 159.268749 
L 207.84123 155.684072 
L 209.315376 159.001641 
L 209.806758 155.827304 
L 210.29814 153.686563 
L 210.789522 148.545686 
L 211.280904 147.546931 
L 212.75505 148.487619 
L 213.246432 153.493006 
L 213.737814 152.362632 
L 214.229196 154.875003 
L 216.194724 151.71228 
L 216.686106 150.283829 
L 217.66887 141.864095 
L 218.160252 134.977334 
L 219.634398 129.193847 
L 220.12578 138.136185 
L 220.617162 139.971107 
L 221.108544 137.005812 
L 221.599926 132.801752 
L 222.091308 127.250534 
L 223.074072 134.667642 
L 223.565454 140.644685 
L 224.056836 148.054051 
L 224.548218 146.242357 
L 225.0396 152.865881 
L 226.513746 149.834776 
L 227.005128 150.268344 
L 227.49651 149.165069 
L 227.987892 151.456785 
L 228.479274 147.512091 
L 229.95342 145.650072 
L 230.444802 151.263228 
L 230.936184 155.420834 
L 231.427566 155.815691 
L 231.918948 155.854402 
L 233.393094 157.991273 
L 233.884476 158.475165 
L 234.86724 159.655864 
L 235.358622 174.161033 
L 236.832768 174.071996 
L 237.32415 175.728845 
L 237.815532 164.351559 
L 238.306914 165.869046 
L 238.798296 162.330823 
L 240.272442 163.147634 
L 241.255206 158.939702 
L 241.746588 163.879279 
L 243.712116 168.009788 
L 244.203498 168.009788 
L 244.69488 165.516773 
L 245.186262 155.91634 
L 245.677644 157.240271 
L 247.15179 158.568073 
L 247.643172 154.824678 
L 248.134554 154.476276 
L 248.625936 155.13437 
L 249.117318 147.725004 
L 251.082846 150.519969 
L 251.574228 139.944009 
L 252.06561 137.152915 
L 252.556992 141.027928 
L 254.031138 138.515557 
L 254.52252 128.953837 
L 255.013902 116.55844 
L 255.996666 115.726144 
L 257.962194 112.544066 
L 258.453576 110.616237 
L 258.944958 107.6432 
L 260.910486 112.396962 
L 261.401868 109.121976 
L 261.89325 100.698371 
L 262.384632 107.078013 
L 262.876014 110.283319 
L 264.35016 109.640709 
L 264.841542 106.582507 
L 265.332924 108.858739 
L 266.315688 119.535348 
L 267.789834 115.044824 
L 268.281216 112.373736 
L 268.772598 115.664206 
L 269.755362 109.083265 
L 271.229508 95.727825 
L 271.720891 105.289546 
L 272.212273 105.366969 
L 272.703655 106.838003 
L 273.195037 104.012069 
L 274.669183 102.618458 
L 275.160565 109.702648 
L 275.651947 104.631452 
L 276.143329 108.967131 
L 276.634711 105.173411 
L 278.108857 102.192632 
L 279.091621 106.21862 
L 279.583003 104.476606 
L 280.074385 103.315263 
L 281.548531 95.998805 
L 282.531295 100.876444 
L 283.022677 96.385919 
L 283.514059 95.805248 
L 284.988205 88.875904 
L 285.479587 91.198589 
L 285.970969 92.514777 
L 286.462351 98.747316 
L 286.953733 98.708604 
L 288.427879 99.444121 
L 288.919261 98.824739 
L 289.410643 98.515047 
L 289.902025 99.637678 
L 290.393407 97.392416 
L 291.867553 98.747316 
L 292.358935 95.069731 
L 292.850317 88.024253 
L 293.341699 78.733512 
L 293.833081 81.327177 
L 295.307227 76.952787 
L 295.798609 85.275742 
L 296.289991 81.67558 
L 296.781373 81.327177 
L 297.272755 83.107902 
L 298.746901 74.397833 
L 299.238283 77.881861 
L 299.729665 74.552679 
L 300.221047 74.86237 
L 300.712429 84.114399 
L 302.677957 82.023983 
L 303.169339 81.94656 
L 303.660721 80.32068 
L 304.152103 85.895124 
L 305.626249 90.075958 
L 306.117631 87.985541 
L 306.609013 87.13389 
L 307.100395 90.734052 
L 307.591777 96.850456 
L 309.065923 94.48906 
L 309.557305 94.372925 
L 310.048687 85.004762 
L 311.031451 81.056197 
L 312.505597 81.907848 
L 312.996979 93.637408 
L 313.488361 111.67693 
L 313.979743 105.94764 
L 314.471125 112.876984 
L 315.945271 113.30281 
L 316.436653 116.670703 
L 316.928035 113.767347 
L 317.419417 119.419214 
L 319.384945 108.850996 
L 319.876327 104.205626 
L 320.367709 88.566212 
L 320.859091 96.579476 
L 321.350473 100.605464 
L 322.824619 100.21835 
L 323.316001 83.572439 
L 324.298765 87.017756 
L 324.790147 79.043203 
L 326.264293 77.301189 
L 326.755675 73.817162 
L 327.247057 72.539685 
L 327.738439 58.990688 
L 328.229821 59.532648 
L 329.703967 56.474446 
L 330.195349 54.384029 
L 330.686731 50.009638 
L 331.178113 42.15122 
L 331.669495 46.293342 
L 333.635023 49.738658 
L 334.126405 57.868057 
L 334.617787 57.635788 
L 335.109169 60.035896 
L 336.583315 61.042393 
L 337.074697 70.526691 
L 337.566079 67.700757 
L 338.057461 69.016945 
L 338.548843 71.571899 
L 340.022989 70.913805 
L 340.514371 66.113589 
L 341.005753 68.010449 
L 341.988517 65.997455 
L 343.462663 64.565132 
L 343.954045 74.165564 
L 344.445427 78.114129 
L 344.936809 75.017216 
L 345.428191 75.365618 
L 346.902337 76.101135 
L 347.393719 80.86264 
L 347.885101 76.449538 
L 348.376483 63.442501 
L 348.867865 58.990688 
L 350.342011 59.997185 
L 350.833393 59.610071 
L 351.816157 60.15203 
L 352.307539 61.313373 
L 354.273067 76.178558 
L 354.764449 76.836652 
L 355.255831 76.294692 
L 355.747213 78.075418 
L 357.221359 79.314183 
L 357.712741 73.739739 
L 358.695505 64.371575 
L 359.186887 53.222686 
L 360.661033 55.080834 
L 361.152415 69.249214 
L 361.643797 74.707524 
L 362.135179 76.914075 
L 362.626561 80.630371 
L 364.592089 77.804438 
L 365.083472 75.13335 
L 365.574854 79.430317 
L 366.066236 79.894854 
L 367.540382 79.701297 
L 368.031764 75.714021 
L 368.523146 74.668813 
L 369.014528 78.849646 
L 369.50591 77.339901 
L 370.980056 79.856143 
L 371.471438 75.055927 
L 371.96282 79.004492 
L 372.454202 74.978504 
L 372.945584 68.436274 
L 374.41973 77.223766 
L 374.911112 74.397833 
L 375.402494 78.6948 
L 375.893876 77.262478 
L 376.385258 71.959013 
L 377.859404 62.474716 
L 378.842168 57.984191 
L 379.33355 62.281158 
L 379.824932 57.442231 
L 381.299078 58.990688 
L 381.79046 60.69399 
L 382.281842 63.094098 
L 383.264606 62.900541 
L 384.738752 62.203736 
L 385.230134 64.410287 
L 385.721516 63.016675 
L 386.70428 66.616837 
L 388.178426 63.365078 
L 388.669808 55.390526 
L 389.16119 51.093558 
L 389.652572 62.823118 
L 390.143954 67.158797 
L 391.6181 69.791174 
L 392.109482 71.765456 
L 392.600864 72.655819 
L 393.092246 72.655819 
L 393.583628 73.275202 
L 395.057774 69.791174 
L 395.549156 74.397833 
L 396.040538 80.707794 
L 396.53192 70.681537 
L 397.023302 78.191552 
L 398.98883 74.242987 
L 399.480212 84.888628 
L 399.971594 86.86291 
L 400.462976 76.21727 
L 401.937122 74.04943 
L 402.428504 74.552679 
L 402.919886 74.784947 
L 403.411268 75.443041 
L 403.90265 72.307416 
L 405.376796 77.572169 
L 405.868178 75.210773 
L 406.35956 63.94575 
L 406.850942 57.519654 
L 407.342324 66.926529 
L 409.307852 54.15176 
L 409.799234 51.790364 
L 410.290616 57.016405 
L 410.781998 57.790634 
L 412.256144 55.932486 
L 412.747526 52.835572 
L 413.238908 53.183975 
L 413.73029 54.809854 
L 414.221672 65.223226 
L 415.695818 68.59112 
L 416.678582 73.972007 
L 417.169964 68.281429 
L 417.661346 66.732972 
L 419.135492 73.933296 
L 419.626874 67.894314 
L 420.118256 71.494476 
L 420.609638 81.907848 
L 421.10102 80.243257 
L 422.575166 77.649592 
L 423.066548 76.449538 
L 423.55793 74.32041 
L 424.049312 90.695341 
L 424.540694 94.953597 
L 426.01484 104.902432 
L 426.506222 103.082995 
L 426.997604 92.747046 
L 427.980368 104.128203 
L 429.454514 110.089762 
L 429.454514 110.089762 
" clip-path="url(#p742b03ded1)" style="fill: none; stroke: #184f95; stroke-width: 1.2; stroke-linecap: square"/>
   </g>
   <g id="patch_3">
    <path d="M 53.842109 182.971171 
L 53.842109 23.64 
" style="fill: none; stroke: #000000; stroke-width: 0.8; stroke-linejoin: miter; stroke-linecap: square"/>
   </g>
   <g id="patch_4">
    <path d="M 53.842109 182.971171 
L 447.340819 182.971171 
" style="fill: none; stroke: #000000; stroke-width: 0.8; stroke-linejoin: miter; stroke-linecap: square"/>
   </g>
   <g id="text_7">
    <text style="font-size: 10px; font-family: 'DejaVu Sans', 'Bitstream Vera Sans', 'Computer Modern Sans Serif', 'Lucida Grande', 'Verdana', 'Geneva', 'Lucid', 'Arial', 'Helvetica', 'Avant Garde', sans-serif; text-anchor: start; fill: #0b0b0b" x="53.842109" y="17.64" transform="rotate(-0 53.842109 17.64)">Britannia: price and 14-day ATR as % of price</text>
   </g>
  </g>
  <g id="axes_2">
   <g id="patch_5">
    <path d="M 53.842109 276.68 
L 447.340819 276.68 
L 447.340819 197.014415 
L 53.842109 197.014415 
z
" style="fill: #ffffff"/>
   </g>
   <g id="matplotlib.axis_3">
    <g id="xtick_10">
     <g id="line2d_16">
      <g>
       <use xlink:href="#mceaa14d1d5" x="71.728414" y="276.68" style="stroke: #000000; stroke-width: 0.8"/>
      </g>
     </g>
     <g id="text_8">
      <text style="font-size: 9px; font-family: 'DejaVu Sans', 'Bitstream Vera Sans', 'Computer Modern Sans Serif', 'Lucida Grande', 'Verdana', 'Geneva', 'Lucid', 'Arial', 'Helvetica', 'Avant Garde', sans-serif; text-anchor: middle" x="71.728414" y="290.517891" transform="rotate(-0 71.728414 290.517891)">2024-04</text>
     </g>
    </g>
    <g id="xtick_11">
     <g id="line2d_17">
      <g>
       <use xlink:href="#mceaa14d1d5" x="116.444177" y="276.68" style="stroke: #000000; stroke-width: 0.8"/>
      </g>
     </g>
     <g id="text_9">
      <text style="font-size: 9px; font-family: 'DejaVu Sans', 'Bitstream Vera Sans', 'Computer Modern Sans Serif', 'Lucida Grande', 'Verdana', 'Geneva', 'Lucid', 'Arial', 'Helvetica', 'Avant Garde', sans-serif; text-anchor: middle" x="116.444177" y="290.517891" transform="rotate(-0 116.444177 290.517891)">2024-07</text>
     </g>
    </g>
    <g id="xtick_12">
     <g id="line2d_18">
      <g>
       <use xlink:href="#mceaa14d1d5" x="161.651321" y="276.68" style="stroke: #000000; stroke-width: 0.8"/>
      </g>
     </g>
     <g id="text_10">
      <text style="font-size: 9px; font-family: 'DejaVu Sans', 'Bitstream Vera Sans', 'Computer Modern Sans Serif', 'Lucida Grande', 'Verdana', 'Geneva', 'Lucid', 'Arial', 'Helvetica', 'Avant Garde', sans-serif; text-anchor: middle" x="161.651321" y="290.517891" transform="rotate(-0 161.651321 290.517891)">2024-10</text>
     </g>
    </g>
    <g id="xtick_13">
     <g id="line2d_19">
      <g>
       <use xlink:href="#mceaa14d1d5" x="206.858466" y="276.68" style="stroke: #000000; stroke-width: 0.8"/>
      </g>
     </g>
     <g id="text_11">
      <text style="font-size: 9px; font-family: 'DejaVu Sans', 'Bitstream Vera Sans', 'Computer Modern Sans Serif', 'Lucida Grande', 'Verdana', 'Geneva', 'Lucid', 'Arial', 'Helvetica', 'Avant Garde', sans-serif; text-anchor: middle" x="206.858466" y="290.517891" transform="rotate(-0 206.858466 290.517891)">2025-01</text>
     </g>
    </g>
    <g id="xtick_14">
     <g id="line2d_20">
      <g>
       <use xlink:href="#mceaa14d1d5" x="251.082846" y="276.68" style="stroke: #000000; stroke-width: 0.8"/>
      </g>
     </g>
     <g id="text_12">
      <text style="font-size: 9px; font-family: 'DejaVu Sans', 'Bitstream Vera Sans', 'Computer Modern Sans Serif', 'Lucida Grande', 'Verdana', 'Geneva', 'Lucid', 'Arial', 'Helvetica', 'Avant Garde', sans-serif; text-anchor: middle" x="251.082846" y="290.517891" transform="rotate(-0 251.082846 290.517891)">2025-04</text>
     </g>
    </g>
    <g id="xtick_15">
     <g id="line2d_21">
      <g>
       <use xlink:href="#mceaa14d1d5" x="295.798609" y="276.68" style="stroke: #000000; stroke-width: 0.8"/>
      </g>
     </g>
     <g id="text_13">
      <text style="font-size: 9px; font-family: 'DejaVu Sans', 'Bitstream Vera Sans', 'Computer Modern Sans Serif', 'Lucida Grande', 'Verdana', 'Geneva', 'Lucid', 'Arial', 'Helvetica', 'Avant Garde', sans-serif; text-anchor: middle" x="295.798609" y="290.517891" transform="rotate(-0 295.798609 290.517891)">2025-07</text>
     </g>
    </g>
    <g id="xtick_16">
     <g id="line2d_22">
      <g>
       <use xlink:href="#mceaa14d1d5" x="341.005753" y="276.68" style="stroke: #000000; stroke-width: 0.8"/>
      </g>
     </g>
     <g id="text_14">
      <text style="font-size: 9px; font-family: 'DejaVu Sans', 'Bitstream Vera Sans', 'Computer Modern Sans Serif', 'Lucida Grande', 'Verdana', 'Geneva', 'Lucid', 'Arial', 'Helvetica', 'Avant Garde', sans-serif; text-anchor: middle" x="341.005753" y="290.517891" transform="rotate(-0 341.005753 290.517891)">2025-10</text>
     </g>
    </g>
    <g id="xtick_17">
     <g id="line2d_23">
      <g>
       <use xlink:href="#mceaa14d1d5" x="386.212898" y="276.68" style="stroke: #000000; stroke-width: 0.8"/>
      </g>
     </g>
     <g id="text_15">
      <text style="font-size: 9px; font-family: 'DejaVu Sans', 'Bitstream Vera Sans', 'Computer Modern Sans Serif', 'Lucida Grande', 'Verdana', 'Geneva', 'Lucid', 'Arial', 'Helvetica', 'Avant Garde', sans-serif; text-anchor: middle" x="386.212898" y="290.517891" transform="rotate(-0 386.212898 290.517891)">2026-01</text>
     </g>
    </g>
    <g id="xtick_18">
     <g id="line2d_24">
      <g>
       <use xlink:href="#mceaa14d1d5" x="430.437278" y="276.68" style="stroke: #000000; stroke-width: 0.8"/>
      </g>
     </g>
     <g id="text_16">
      <text style="font-size: 9px; font-family: 'DejaVu Sans', 'Bitstream Vera Sans', 'Computer Modern Sans Serif', 'Lucida Grande', 'Verdana', 'Geneva', 'Lucid', 'Arial', 'Helvetica', 'Avant Garde', sans-serif; text-anchor: middle" x="430.437278" y="290.517891" transform="rotate(-0 430.437278 290.517891)">2026-04</text>
     </g>
    </g>
   </g>
   <g id="matplotlib.axis_4">
    <g id="ytick_6">
     <g id="line2d_25">
      <g>
       <use xlink:href="#me4d7e05a26" x="53.842109" y="255.30865" style="stroke: #000000; stroke-width: 0.8"/>
      </g>
     </g>
     <g id="text_17">
      <text style="font-size: 9px; font-family: 'DejaVu Sans', 'Bitstream Vera Sans', 'Computer Modern Sans Serif', 'Lucida Grande', 'Verdana', 'Geneva', 'Lucid', 'Arial', 'Helvetica', 'Avant Garde', sans-serif; text-anchor: end" x="46.842109" y="258.727596" transform="rotate(-0 46.842109 258.727596)">2</text>
     </g>
    </g>
    <g id="ytick_7">
     <g id="line2d_26">
      <g>
       <use xlink:href="#me4d7e05a26" x="53.842109" y="216.531099" style="stroke: #000000; stroke-width: 0.8"/>
      </g>
     </g>
     <g id="text_18">
      <text style="font-size: 9px; font-family: 'DejaVu Sans', 'Bitstream Vera Sans', 'Computer Modern Sans Serif', 'Lucida Grande', 'Verdana', 'Geneva', 'Lucid', 'Arial', 'Helvetica', 'Avant Garde', sans-serif; text-anchor: end" x="46.842109" y="219.950044" transform="rotate(-0 46.842109 219.950044)">3</text>
     </g>
    </g>
    <g id="text_19">
     <text style="font-size: 9px; font-family: 'DejaVu Sans', 'Bitstream Vera Sans', 'Computer Modern Sans Serif', 'Lucida Grande', 'Verdana', 'Geneva', 'Lucid', 'Arial', 'Helvetica', 'Avant Garde', sans-serif; text-anchor: middle" x="34.95375" y="236.847207" transform="rotate(-90 34.95375 236.847207)">ATR (% of close)</text>
    </g>
   </g>
   <g id="line2d_27">
    <path d="M 82.538818 270.497255 
L 83.0302 271.941409 
L 83.521582 270.095081 
L 84.012964 270.124418 
L 85.978493 272.344559 
L 86.961257 272.869797 
L 87.452639 272.705066 
L 88.926785 255.281858 
L 89.418167 253.22653 
L 89.909549 253.085565 
L 90.400931 245.381062 
L 90.892313 243.571058 
L 92.366459 244.770876 
L 92.857841 244.410596 
L 93.349223 243.39532 
L 93.840605 243.835225 
L 94.331987 245.287983 
L 96.297515 245.170199 
L 97.280279 247.115882 
L 97.771661 249.129992 
L 99.245807 247.366449 
L 99.737189 248.521353 
L 100.719953 252.366513 
L 101.211335 251.944932 
L 102.685481 250.046683 
L 103.176863 243.287439 
L 103.668245 231.94166 
L 104.159627 228.037318 
L 104.651009 232.134238 
L 106.125155 231.947997 
L 106.616537 233.713727 
L 107.107919 232.491618 
L 107.599301 233.050429 
L 108.090683 236.603267 
L 110.056211 240.450909 
L 111.530357 247.030868 
L 113.004503 248.473761 
L 113.495885 251.115042 
L 113.987267 252.028773 
L 114.970031 256.931948 
L 116.444177 259.429382 
L 116.935559 257.797012 
L 119.883851 260.569118 
L 120.375233 260.253769 
L 120.866615 260.144329 
L 121.849379 262.331608 
L 123.323525 264.731032 
L 123.814907 264.973329 
L 124.797671 265.20348 
L 125.289053 263.915785 
L 126.763199 264.634441 
L 127.254581 262.454516 
L 127.745963 258.617454 
L 128.728727 263.264827 
L 130.202873 262.987174 
L 130.694255 259.867444 
L 131.185637 258.330667 
L 131.677019 256.236168 
L 132.168401 252.983335 
L 133.642547 249.019701 
L 134.133929 246.53599 
L 134.625311 246.96631 
L 135.116693 245.219235 
L 135.608075 248.254949 
L 137.082221 245.648169 
L 137.573603 247.388993 
L 138.064985 248.445439 
L 139.047749 251.412957 
L 140.521895 255.086919 
L 141.013277 258.871346 
L 141.504659 260.566848 
L 141.996041 263.382706 
L 142.487423 264.714765 
L 143.961569 265.627854 
L 144.452951 264.771914 
L 144.944333 264.814904 
L 145.435715 263.992922 
L 145.927097 263.701937 
L 147.401243 265.686705 
L 147.892625 266.956155 
L 148.384007 266.755171 
L 148.875389 266.258792 
L 149.366771 268.213061 
L 150.840917 268.31374 
L 151.332299 269.52078 
L 151.823681 269.82409 
L 152.315063 269.668901 
L 152.806445 270.280957 
L 154.280591 265.11148 
L 154.771973 264.025332 
L 155.263355 264.252239 
L 155.754737 264.242269 
L 156.246119 264.001364 
L 157.720265 266.286831 
L 158.211647 268.245029 
L 158.703029 268.0854 
L 159.194411 268.282587 
L 159.685793 266.313509 
L 161.159939 266.420494 
L 161.651321 265.465893 
L 162.634085 261.280543 
L 163.125467 257.90128 
L 164.599613 256.397724 
L 165.582377 252.870006 
L 166.073759 249.109661 
L 166.565141 251.15219 
L 168.039287 251.223795 
L 169.022051 255.112224 
L 170.004815 251.826074 
L 171.478961 249.825749 
L 172.461725 251.59112 
L 172.953107 246.732473 
L 173.444489 248.976683 
L 174.918635 250.383636 
L 175.410017 248.259916 
L 175.901399 248.325949 
L 176.392781 249.999042 
L 176.884163 249.792397 
L 178.35831 247.060108 
L 179.341074 250.431734 
L 179.832456 250.995283 
L 180.323838 250.321669 
L 181.797984 226.276288 
L 182.289366 202.204686 
L 182.780748 203.80681 
L 183.27213 201.409947 
L 185.237658 200.635577 
L 185.72904 205.493944 
L 186.711804 203.984263 
L 187.203186 208.279273 
L 188.677332 211.053994 
L 189.660096 217.768143 
L 190.151478 217.846603 
L 190.64286 222.182897 
L 192.117006 224.140728 
L 192.608388 229.475476 
L 193.09977 228.124181 
L 194.082534 234.50249 
L 195.55668 233.063877 
L 196.048062 237.367574 
L 196.539444 238.806278 
L 197.030826 238.742186 
L 197.522208 240.711603 
L 199.487736 243.215128 
L 199.979118 247.03698 
L 200.4705 248.696038 
L 200.961882 245.762459 
L 202.436028 247.899323 
L 202.92741 250.162839 
L 203.910174 251.170189 
L 204.401556 253.125675 
L 205.875702 254.669481 
L 206.367084 256.307701 
L 206.858466 258.351096 
L 207.349848 258.722124 
L 207.84123 260.454509 
L 209.315376 259.232701 
L 209.806758 259.652607 
L 210.29814 258.899732 
L 210.789522 253.30411 
L 211.280904 254.875872 
L 212.75505 255.10154 
L 213.246432 254.005197 
L 213.737814 252.297932 
L 214.229196 248.580922 
L 214.720578 248.60907 
L 216.686106 251.893788 
L 217.177488 253.33802 
L 217.66887 251.014599 
L 218.160252 253.006514 
L 219.634398 253.709989 
L 220.12578 246.846786 
L 220.617162 246.621238 
L 221.108544 249.562828 
L 221.599926 249.317563 
L 222.091308 238.88789 
L 223.074072 232.157979 
L 223.565454 230.881307 
L 224.056836 228.823667 
L 224.548218 232.645406 
L 225.0396 225.009685 
L 226.513746 225.698546 
L 227.49651 231.115138 
L 227.987892 233.079917 
L 228.479274 236.607082 
L 229.95342 240.729354 
L 230.444802 239.94618 
L 230.936184 240.664017 
L 231.427566 244.006879 
L 231.918948 246.524634 
L 233.393094 244.742007 
L 233.884476 245.520701 
L 234.86724 246.045559 
L 235.358622 234.93766 
L 236.832768 234.492162 
L 237.32415 235.606525 
L 237.815532 235.087329 
L 238.306914 233.137644 
L 238.798296 235.027175 
L 240.272442 235.154207 
L 241.255206 239.940798 
L 241.746588 238.07961 
L 243.712116 235.369941 
L 244.203498 242.333785 
L 244.69488 242.096319 
L 245.186262 243.123444 
L 245.677644 245.405509 
L 247.15179 247.750377 
L 247.643172 247.392749 
L 248.134554 248.856758 
L 249.117318 243.61945 
L 251.082846 244.723719 
L 251.574228 244.760102 
L 252.06561 245.738327 
L 252.556992 241.663429 
L 254.031138 223.139629 
L 254.52252 225.4142 
L 255.013902 225.571026 
L 255.996666 228.555604 
L 257.962194 230.425343 
L 258.453576 233.500398 
L 258.944958 237.565805 
L 260.910486 237.690328 
L 261.401868 240.029418 
L 261.89325 241.223059 
L 262.384632 236.596262 
L 262.876014 234.665018 
L 264.841542 238.680848 
L 266.315688 232.809541 
L 267.789834 236.878647 
L 268.772598 240.994664 
L 269.26398 239.686527 
L 269.755362 239.466231 
L 271.229508 238.606662 
L 271.720891 234.37994 
L 272.212273 233.922729 
L 273.195037 240.706862 
L 274.669183 243.177597 
L 275.160565 241.546196 
L 276.143329 244.604763 
L 276.634711 246.945869 
L 278.108857 250.580713 
L 278.600239 252.786386 
L 279.091621 253.353772 
L 279.583003 255.252801 
L 280.074385 256.242618 
L 281.548531 252.463407 
L 282.039913 253.166336 
L 283.514059 257.623489 
L 284.988205 257.653371 
L 285.479587 259.038978 
L 285.970969 260.870367 
L 286.953733 255.144922 
L 288.427879 257.708751 
L 288.919261 259.844581 
L 289.410643 261.405865 
L 289.902025 262.001254 
L 290.393407 262.992122 
L 291.867553 260.891205 
L 292.358935 262.529065 
L 293.341699 262.667924 
L 293.833081 262.477179 
L 295.307227 263.449333 
L 295.798609 260.039621 
L 296.289991 258.369523 
L 296.781373 258.65346 
L 297.272755 259.480334 
L 298.746901 259.9994 
L 299.238283 259.440809 
L 300.221047 262.420591 
L 300.712429 257.076124 
L 302.186575 259.635065 
L 302.677957 262.177067 
L 303.169339 262.785827 
L 303.660721 264.473498 
L 304.152103 264.0218 
L 305.626249 264.82139 
L 306.117631 264.909945 
L 306.609013 265.671931 
L 307.100395 265.077464 
L 307.591777 262.692604 
L 309.065923 263.232087 
L 309.557305 264.136712 
L 310.048687 264.003467 
L 310.540069 264.124441 
L 311.031451 263.216805 
L 312.505597 263.856724 
L 312.996979 257.995081 
L 313.488361 246.783797 
L 313.979743 244.933929 
L 314.471125 243.533835 
L 315.945271 245.223258 
L 316.928035 248.87553 
L 317.419417 248.551267 
L 319.384945 237.97614 
L 319.876327 239.973065 
L 320.367709 237.080868 
L 321.350473 235.046461 
L 322.824619 238.946438 
L 323.316001 237.184814 
L 324.298765 239.575791 
L 324.790147 237.189374 
L 326.264293 239.911834 
L 326.755675 242.626665 
L 327.247057 246.32914 
L 327.738439 235.333357 
L 328.229821 237.363327 
L 329.703967 239.63958 
L 330.195349 243.206811 
L 330.686731 244.940837 
L 331.178113 245.084738 
L 331.669495 246.510967 
L 333.143641 249.217532 
L 333.635023 253.06375 
L 334.126405 249.765386 
L 335.109169 255.21353 
L 336.583315 256.80936 
L 337.074697 254.132414 
L 337.566079 253.499395 
L 338.057461 254.468247 
L 338.548843 255.89609 
L 340.022989 254.535474 
L 340.514371 255.635601 
L 341.005753 255.565215 
L 341.988517 257.584687 
L 343.462663 259.651835 
L 343.954045 255.497892 
L 344.445427 255.626395 
L 344.936809 257.035627 
L 345.428191 259.496752 
L 347.393719 259.827948 
L 347.885101 261.046994 
L 348.867865 258.440407 
L 350.342011 259.706871 
L 350.833393 262.343831 
L 351.816157 262.923371 
L 352.307539 263.98301 
L 353.781685 256.063122 
L 354.273067 254.666567 
L 355.255831 258.860874 
L 355.747213 260.079444 
L 357.221359 259.167905 
L 357.712741 259.862374 
L 359.186887 248.622821 
L 360.661033 248.01169 
L 361.152415 232.54157 
L 361.643797 232.513858 
L 362.135179 235.322698 
L 364.100707 240.748739 
L 364.592089 244.787813 
L 365.083472 247.881563 
L 365.574854 246.701723 
L 366.066236 248.461355 
L 367.540382 251.475577 
L 368.031764 253.797905 
L 368.523146 256.717249 
L 369.014528 257.483973 
L 369.50591 260.40107 
L 371.471438 263.43702 
L 371.96282 263.266332 
L 372.454202 266.075674 
L 372.945584 265.429265 
L 374.41973 261.451775 
L 374.911112 261.644631 
L 375.402494 258.783588 
L 376.385258 261.891066 
L 377.859404 259.214702 
L 378.350786 259.631275 
L 378.842168 262.24343 
L 379.33355 261.091011 
L 379.824932 261.295145 
L 381.299078 264.503936 
L 381.79046 265.08915 
L 382.281842 266.207532 
L 383.264606 267.895076 
L 384.738752 269.851844 
L 385.721516 272.199666 
L 386.212898 273.058837 
L 386.70428 272.863706 
L 388.178426 270.115046 
L 388.669808 266.809652 
L 389.16119 265.741403 
L 389.652572 257.975985 
L 390.143954 254.495069 
L 391.6181 255.225996 
L 392.600864 258.644995 
L 393.092246 263.946335 
L 393.583628 264.931647 
L 395.057774 266.0207 
L 395.549156 263.930272 
L 396.53192 260.996564 
L 397.023302 257.876456 
L 398.98883 258.189077 
L 399.480212 250.107641 
L 399.971594 252.990297 
L 400.462976 252.070209 
L 402.428504 247.368339 
L 402.919886 248.252116 
L 403.90265 250.616369 
L 405.376796 249.771657 
L 405.868178 253.72599 
L 406.35956 248.154982 
L 406.850942 249.419945 
L 407.342324 247.599947 
L 408.81647 247.628598 
L 409.799234 253.21966 
L 410.290616 253.35288 
L 410.781998 255.686475 
L 412.256144 256.59413 
L 412.747526 257.647439 
L 413.238908 259.887912 
L 413.73029 259.58801 
L 414.221672 255.568149 
L 415.695818 254.220611 
L 417.169964 253.39912 
L 417.661346 255.317315 
L 419.135492 251.84255 
L 419.626874 253.739881 
L 420.118256 254.370933 
L 420.609638 248.304149 
L 421.10102 247.291158 
L 422.575166 248.738613 
L 423.55793 254.540374 
L 424.049312 245.584728 
L 424.540694 243.261106 
L 426.01484 240.49918 
L 426.506222 237.640849 
L 427.980368 231.822669 
L 429.454514 229.10148 
L 429.454514 229.10148 
" clip-path="url(#p09b071c70a)" style="fill: none; stroke: #52514e; stroke-width: 1.2; stroke-linecap: square"/>
   </g>
   <g id="line2d_28">
    <path d="M 386.212898 276.68 
L 386.212898 197.014415 
" clip-path="url(#p09b071c70a)" style="fill: none; stroke-dasharray: 0.8,1.32; stroke-dashoffset: 0; stroke: #184f95; stroke-width: 0.8"/>
   </g>
   <g id="line2d_29">
    <path d="M 185.237658 276.68 
L 185.237658 197.014415 
" clip-path="url(#p09b071c70a)" style="fill: none; stroke-dasharray: 0.8,1.32; stroke-dashoffset: 0; stroke: #b3261e; stroke-width: 0.8"/>
   </g>
   <g id="patch_6">
    <path d="M 53.842109 276.68 
L 53.842109 197.014415 
" style="fill: none; stroke: #000000; stroke-width: 0.8; stroke-linejoin: miter; stroke-linecap: square"/>
   </g>
   <g id="patch_7">
    <path d="M 53.842109 276.68 
L 447.340819 276.68 
" style="fill: none; stroke: #000000; stroke-width: 0.8; stroke-linejoin: miter; stroke-linecap: square"/>
   </g>
   <g id="text_20">
    <text style="font-size: 8px; font-family: 'DejaVu Sans', 'Bitstream Vera Sans', 'Computer Modern Sans Serif', 'Lucida Grande', 'Verdana', 'Geneva', 'Lucid', 'Arial', 'Helvetica', 'Avant Garde', sans-serif; text-anchor: start; fill: #184f95" x="390.212898" y="265.058837" transform="rotate(-0 390.212898 265.058837)">calmest</text>
   </g>
   <g id="text_21">
    <text style="font-size: 8px; font-family: 'DejaVu Sans', 'Bitstream Vera Sans', 'Computer Modern Sans Serif', 'Lucida Grande', 'Verdana', 'Geneva', 'Lucid', 'Arial', 'Helvetica', 'Avant Garde', sans-serif; text-anchor: start; fill: #b3261e" x="189.237658" y="212.635577" transform="rotate(-0 189.237658 212.635577)">wildest</text>
   </g>
  </g>
 </g>
 <defs>
  <clipPath id="p742b03ded1">
   <rect x="53.842109" y="23.64" width="393.49871" height="159.331171"/>
  </clipPath>
  <clipPath id="p09b071c70a">
   <rect x="53.842109" y="197.014415" width="393.49871" height="79.665585"/>
  </clipPath>
 </defs>
</svg>
