<?xml version="1.0" encoding="utf-8" standalone="no"?>
<!DOCTYPE svg PUBLIC "-//W3C//DTD SVG 1.1//EN"
  "http://www.w3.org/Graphics/SVG/1.1/DTD/svg11.dtd">
<svg xmlns:xlink="http://www.w3.org/1999/xlink" width="612pt" height="417.6pt" viewBox="0 0 612 417.6" xmlns="http://www.w3.org/2000/svg" version="1.1">
 <metadata>
  <rdf:RDF xmlns:dc="http://purl.org/dc/elements/1.1/" xmlns:cc="http://creativecommons.org/ns#" xmlns:rdf="http://www.w3.org/1999/02/22-rdf-syntax-ns#">
   <cc:Work>
    <dc:type rdf:resource="http://purl.org/dc/dcmitype/StillImage"/>
    <dc:format>image/svg+xml</dc:format>
    <dc:creator>
     <cc:Agent>
      <dc:title>Matplotlib v3.11.2, https://matplotlib.org/</dc:title>
     </cc:Agent>
    </dc:creator>
   </cc:Work>
  </rdf:RDF>
 </metadata>
 <defs>
  <style type="text/css">*{stroke-linejoin: round; stroke-linecap: butt}</style>
 </defs>
 <g id="figure_1">
  <g id="patch_1">
   <path d="M 0 417.6 
L 612 417.6 
L 612 0 
L 0 0 
z
" style="fill: #ffffff"/>
  </g>
  <g id="axes_1">
   <g id="patch_2">
    <path d="M 52.76 263.16031 
L 602.28 263.16031 
L 602.28 23.64 
L 52.76 23.64 
z
" style="fill: #ffffff"/>
   </g>
   <g id="matplotlib.axis_1">
    <g id="xtick_1">
     <g id="line2d_1">
      <path d="M 56.581798 263.16031 
L 56.581798 23.64 
" clip-path="url(#p4f211da718)" style="fill: none; stroke: #e8e8e8; stroke-width: 0.7; stroke-linecap: square"/>
     </g>
     <g id="line2d_2">
      <defs>
       <path id="m043c0d7d0b" d="M 0 0 
L 0 3.5 
" style="stroke: #555555; stroke-width: 0.8"/>
      </defs>
      <g>
       <use xlink:href="#m043c0d7d0b" x="56.581798" y="263.16031" style="fill: #555555; stroke: #555555; stroke-width: 0.8"/>
      </g>
     </g>
    </g>
    <g id="xtick_2">
     <g id="line2d_3">
      <path d="M 119.368485 263.16031 
L 119.368485 23.64 
" clip-path="url(#p4f211da718)" style="fill: none; stroke: #e8e8e8; stroke-width: 0.7; stroke-linecap: square"/>
     </g>
     <g id="line2d_4">
      <g>
       <use xlink:href="#m043c0d7d0b" x="119.368485" y="263.16031" style="fill: #555555; stroke: #555555; stroke-width: 0.8"/>
      </g>
     </g>
    </g>
    <g id="xtick_3">
     <g id="line2d_5">
      <path d="M 182.155171 263.16031 
L 182.155171 23.64 
" clip-path="url(#p4f211da718)" style="fill: none; stroke: #e8e8e8; stroke-width: 0.7; stroke-linecap: square"/>
     </g>
     <g id="line2d_6">
      <g>
       <use xlink:href="#m043c0d7d0b" x="182.155171" y="263.16031" style="fill: #555555; stroke: #555555; stroke-width: 0.8"/>
      </g>
     </g>
    </g>
    <g id="xtick_4">
     <g id="line2d_7">
      <path d="M 244.259394 263.16031 
L 244.259394 23.64 
" clip-path="url(#p4f211da718)" style="fill: none; stroke: #e8e8e8; stroke-width: 0.7; stroke-linecap: square"/>
     </g>
     <g id="line2d_8">
      <g>
       <use xlink:href="#m043c0d7d0b" x="244.259394" y="263.16031" style="fill: #555555; stroke: #555555; stroke-width: 0.8"/>
      </g>
     </g>
    </g>
    <g id="xtick_5">
     <g id="line2d_9">
      <path d="M 305.681153 263.16031 
L 305.681153 23.64 
" clip-path="url(#p4f211da718)" style="fill: none; stroke: #e8e8e8; stroke-width: 0.7; stroke-linecap: square"/>
     </g>
     <g id="line2d_10">
      <g>
       <use xlink:href="#m043c0d7d0b" x="305.681153" y="263.16031" style="fill: #555555; stroke: #555555; stroke-width: 0.8"/>
      </g>
     </g>
    </g>
    <g id="xtick_6">
     <g id="line2d_11">
      <path d="M 368.467839 263.16031 
L 368.467839 23.64 
" clip-path="url(#p4f211da718)" style="fill: none; stroke: #e8e8e8; stroke-width: 0.7; stroke-linecap: square"/>
     </g>
     <g id="line2d_12">
      <g>
       <use xlink:href="#m043c0d7d0b" x="368.467839" y="263.16031" style="fill: #555555; stroke: #555555; stroke-width: 0.8"/>
      </g>
     </g>
    </g>
    <g id="xtick_7">
     <g id="line2d_13">
      <path d="M 431.254526 263.16031 
L 431.254526 23.64 
" clip-path="url(#p4f211da718)" style="fill: none; stroke: #e8e8e8; stroke-width: 0.7; stroke-linecap: square"/>
     </g>
     <g id="line2d_14">
      <g>
       <use xlink:href="#m043c0d7d0b" x="431.254526" y="263.16031" style="fill: #555555; stroke: #555555; stroke-width: 0.8"/>
      </g>
     </g>
    </g>
    <g id="xtick_8">
     <g id="line2d_15">
      <path d="M 493.358748 263.16031 
L 493.358748 23.64 
" clip-path="url(#p4f211da718)" style="fill: none; stroke: #e8e8e8; stroke-width: 0.7; stroke-linecap: square"/>
     </g>
     <g id="line2d_16">
      <g>
       <use xlink:href="#m043c0d7d0b" x="493.358748" y="263.16031" style="fill: #555555; stroke: #555555; stroke-width: 0.8"/>
      </g>
     </g>
    </g>
    <g id="xtick_9">
     <g id="line2d_17">
      <path d="M 554.780507 263.16031 
L 554.780507 23.64 
" clip-path="url(#p4f211da718)" style="fill: none; stroke: #e8e8e8; stroke-width: 0.7; stroke-linecap: square"/>
     </g>
     <g id="line2d_18">
      <g>
       <use xlink:href="#m043c0d7d0b" x="554.780507" y="263.16031" style="fill: #555555; stroke: #555555; stroke-width: 0.8"/>
      </g>
     </g>
    </g>
   </g>
   <g id="matplotlib.axis_2">
    <g id="ytick_1">
     <g id="line2d_19">
      <path d="M 52.76 261.02545 
L 602.28 261.02545 
" clip-path="url(#p4f211da718)" style="fill: none; stroke: #e8e8e8; stroke-width: 0.7; stroke-linecap: square"/>
     </g>
     <g id="line2d_20">
      <defs>
       <path id="m736312f9e6" d="M 0 0 
L -3.5 0 
" style="stroke: #555555; stroke-width: 0.8"/>
      </defs>
      <g>
       <use xlink:href="#m736312f9e6" x="52.76" y="261.02545" style="fill: #555555; stroke: #555555; stroke-width: 0.8"/>
      </g>
     </g>
     <g id="text_1">
      <text style="font-size: 9px; font-family: 'DejaVu Sans'; text-anchor: end; fill: #555555" x="45.76" y="264.444396" transform="rotate(-0 45.76 264.444396)">4500</text>
     </g>
    </g>
    <g id="ytick_2">
     <g id="line2d_21">
      <path d="M 52.76 231.928284 
L 602.28 231.928284 
" clip-path="url(#p4f211da718)" style="fill: none; stroke: #e8e8e8; stroke-width: 0.7; stroke-linecap: square"/>
     </g>
     <g id="line2d_22">
      <g>
       <use xlink:href="#m736312f9e6" x="52.76" y="231.928284" style="fill: #555555; stroke: #555555; stroke-width: 0.8"/>
      </g>
     </g>
     <g id="text_2">
      <text style="font-size: 9px; font-family: 'DejaVu Sans'; text-anchor: end; fill: #555555" x="45.76" y="235.347229" transform="rotate(-0 45.76 235.347229)">4750</text>
     </g>
    </g>
    <g id="ytick_3">
     <g id="line2d_23">
      <path d="M 52.76 202.831117 
L 602.28 202.831117 
" clip-path="url(#p4f211da718)" style="fill: none; stroke: #e8e8e8; stroke-width: 0.7; stroke-linecap: square"/>
     </g>
     <g id="line2d_24">
      <g>
       <use xlink:href="#m736312f9e6" x="52.76" y="202.831117" style="fill: #555555; stroke: #555555; stroke-width: 0.8"/>
      </g>
     </g>
     <g id="text_3">
      <text style="font-size: 9px; font-family: 'DejaVu Sans'; text-anchor: end; fill: #555555" x="45.76" y="206.250063" transform="rotate(-0 45.76 206.250063)">5000</text>
     </g>
    </g>
    <g id="ytick_4">
     <g id="line2d_25">
      <path d="M 52.76 173.733951 
L 602.28 173.733951 
" clip-path="url(#p4f211da718)" style="fill: none; stroke: #e8e8e8; stroke-width: 0.7; stroke-linecap: square"/>
     </g>
     <g id="line2d_26">
      <g>
       <use xlink:href="#m736312f9e6" x="52.76" y="173.733951" style="fill: #555555; stroke: #555555; stroke-width: 0.8"/>
      </g>
     </g>
     <g id="text_4">
      <text style="font-size: 9px; font-family: 'DejaVu Sans'; text-anchor: end; fill: #555555" x="45.76" y="177.152896" transform="rotate(-0 45.76 177.152896)">5250</text>
     </g>
    </g>
    <g id="ytick_5">
     <g id="line2d_27">
      <path d="M 52.76 144.636784 
L 602.28 144.636784 
" clip-path="url(#p4f211da718)" style="fill: none; stroke: #e8e8e8; stroke-width: 0.7; stroke-linecap: square"/>
     </g>
     <g id="line2d_28">
      <g>
       <use xlink:href="#m736312f9e6" x="52.76" y="144.636784" style="fill: #555555; stroke: #555555; stroke-width: 0.8"/>
      </g>
     </g>
     <g id="text_5">
      <text style="font-size: 9px; font-family: 'DejaVu Sans'; text-anchor: end; fill: #555555" x="45.76" y="148.05573" transform="rotate(-0 45.76 148.05573)">5500</text>
     </g>
    </g>
    <g id="ytick_6">
     <g id="line2d_29">
      <path d="M 52.76 115.539618 
L 602.28 115.539618 
" clip-path="url(#p4f211da718)" style="fill: none; stroke: #e8e8e8; stroke-width: 0.7; stroke-linecap: square"/>
     </g>
     <g id="line2d_30">
      <g>
       <use xlink:href="#m736312f9e6" x="52.76" y="115.539618" style="fill: #555555; stroke: #555555; stroke-width: 0.8"/>
      </g>
     </g>
     <g id="text_6">
      <text style="font-size: 9px; font-family: 'DejaVu Sans'; text-anchor: end; fill: #555555" x="45.76" y="118.958563" transform="rotate(-0 45.76 118.958563)">5750</text>
     </g>
    </g>
    <g id="ytick_7">
     <g id="line2d_31">
      <path d="M 52.76 86.442451 
L 602.28 86.442451 
" clip-path="url(#p4f211da718)" style="fill: none; stroke: #e8e8e8; stroke-width: 0.7; stroke-linecap: square"/>
     </g>
     <g id="line2d_32">
      <g>
       <use xlink:href="#m736312f9e6" x="52.76" y="86.442451" style="fill: #555555; stroke: #555555; stroke-width: 0.8"/>
      </g>
     </g>
     <g id="text_7">
      <text style="font-size: 9px; font-family: 'DejaVu Sans'; text-anchor: end; fill: #555555" x="45.76" y="89.861397" transform="rotate(-0 45.76 89.861397)">6000</text>
     </g>
    </g>
    <g id="ytick_8">
     <g id="line2d_33">
      <path d="M 52.76 57.345285 
L 602.28 57.345285 
" clip-path="url(#p4f211da718)" style="fill: none; stroke: #e8e8e8; stroke-width: 0.7; stroke-linecap: square"/>
     </g>
     <g id="line2d_34">
      <g>
       <use xlink:href="#m736312f9e6" x="52.76" y="57.345285" style="fill: #555555; stroke: #555555; stroke-width: 0.8"/>
      </g>
     </g>
     <g id="text_8">
      <text style="font-size: 9px; font-family: 'DejaVu Sans'; text-anchor: end; fill: #555555" x="45.76" y="60.76423" transform="rotate(-0 45.76 60.76423)">6250</text>
     </g>
    </g>
    <g id="ytick_9">
     <g id="line2d_35">
      <path d="M 52.76 28.248118 
L 602.28 28.248118 
" clip-path="url(#p4f211da718)" style="fill: none; stroke: #e8e8e8; stroke-width: 0.7; stroke-linecap: square"/>
     </g>
     <g id="line2d_36">
      <g>
       <use xlink:href="#m736312f9e6" x="52.76" y="28.248118" style="fill: #555555; stroke: #555555; stroke-width: 0.8"/>
      </g>
     </g>
     <g id="text_9">
      <text style="font-size: 9px; font-family: 'DejaVu Sans'; text-anchor: end; fill: #555555" x="45.76" y="31.667064" transform="rotate(-0 45.76 31.667064)">6500</text>
     </g>
    </g>
    <g id="text_10">
     <text style="font-size: 9px; font-family: 'DejaVu Sans'; text-anchor: middle; fill: #555555" x="16.692891" y="143.400155" transform="rotate(-90 16.692891 143.400155)">₹</text>
    </g>
   </g>
   <g id="line2d_37">
    <path d="M 77.738182 215.02865 
L 78.420646 214.475803 
L 79.10311 222.081803 
L 79.785574 224.525965 
L 80.468038 224.589979 
L 82.51543 222.989634 
L 83.197894 226.725711 
L 83.880358 225.096269 
L 85.245286 231.724604 
L 87.292678 230.543259 
L 89.34007 238.329661 
L 90.022534 241.437238 
L 92.069925 231.544201 
L 92.752389 226.364906 
L 93.434853 222.739399 
L 94.117317 220.970291 
L 94.799781 226.056476 
L 96.847173 226.126309 
L 97.529637 228.907998 
L 98.894565 230.805133 
L 99.577029 232.556783 
L 102.306885 182.596948 
L 102.989349 176.247946 
L 103.671813 194.672272 
L 104.354277 195.056355 
L 106.401669 187.636577 
L 107.084133 186.443593 
L 107.766597 195.382243 
L 108.449061 186.798579 
L 109.131525 192.728581 
L 111.861381 182.102296 
L 112.543845 171.708788 
L 113.226309 170.108444 
L 113.908773 174.816365 
L 115.956165 178.127623 
L 116.638629 173.669937 
L 117.321093 176.085002 
L 118.003557 179.722148 
L 118.686021 181.904435 
L 120.733413 183.301099 
L 122.098341 146.190573 
L 122.780805 151.567729 
L 123.463269 148.879151 
L 125.510661 145.986893 
L 126.193125 142.570886 
L 126.875589 151.701576 
L 127.558053 158.667438 
L 128.240517 157.014719 
L 130.970373 156.758664 
L 131.652837 160.855545 
L 132.335301 158.783827 
L 133.017765 164.387941 
L 135.065156 168.176392 
L 135.74762 161.856488 
L 136.430084 153.750017 
L 137.112548 152.749074 
L 137.795012 147.482487 
L 139.842404 147.371918 
L 140.524868 156.08361 
L 141.207332 150.560967 
L 141.889796 153.220448 
L 142.57226 139.189795 
L 144.619652 136.658341 
L 145.98458 114.893661 
L 146.667044 114.224426 
L 147.349508 111.227418 
L 149.3969 108.591214 
L 150.079364 102.463351 
L 151.444292 101.398395 
L 152.126756 100.647688 
L 154.174148 99.49544 
L 154.856612 92.872925 
L 155.539076 106.286719 
L 156.22154 106.27508 
L 156.904004 101.24709 
L 158.951396 98.360651 
L 160.998788 117.849933 
L 161.681252 118.990542 
L 163.728644 121.603467 
L 164.411108 103.377002 
L 165.093572 105.437082 
L 165.776036 116.162297 
L 166.4585 116.668588 
L 168.505892 127.673136 
L 169.188356 125.258071 
L 169.87082 126.113528 
L 171.235748 117.908127 
L 173.28314 117.57642 
L 173.965604 113.700677 
L 174.648068 105.373068 
L 175.330532 105.437082 
L 176.012996 110.575641 
L 178.060387 110.07517 
L 178.742851 113.87526 
L 179.425315 120.969149 
L 180.107779 106.06558 
L 180.790243 103.289711 
L 182.837635 95.503309 
L 183.520099 96.21328 
L 184.202563 94.991199 
L 184.885027 103.900751 
L 185.567491 104.651458 
L 188.979811 85.435689 
L 189.662275 73.72699 
L 190.344739 70.95112 
L 192.392131 79.109965 
L 193.074595 73.51749 
L 194.439523 70.788176 
L 195.121987 61.936818 
L 197.169379 61.861165 
L 197.851843 62.798094 
L 198.534307 65.457575 
L 199.216771 56.868091 
L 199.899235 55.157178 
L 201.946627 47.085624 
L 202.629091 34.527287 
L 203.994019 47.830511 
L 204.676483 62.466386 
L 206.723875 72.440895 
L 207.406339 62.652608 
L 208.771267 86.192216 
L 209.453731 88.944808 
L 211.501123 88.997183 
L 212.183587 78.44655 
L 212.866051 75.955833 
L 214.230979 99.571093 
L 216.278371 112.245819 
L 216.960835 118.216557 
L 217.643299 115.673465 
L 218.325763 131.554698 
L 219.008227 124.920544 
L 221.055618 118.763584 
L 221.738082 125.141683 
L 222.420546 111.756986 
L 223.10301 118.228196 
L 223.785474 122.167952 
L 226.51533 132.404336 
L 227.197794 121.952633 
L 227.880258 122.650965 
L 228.562722 115.871326 
L 230.610114 152.242784 
L 231.292578 199.62461 
L 231.975042 197.419044 
L 232.657506 212.654321 
L 235.387362 213.148973 
L 236.069826 215.319621 
L 237.434754 225.718949 
L 238.117218 220.481459 
L 240.16461 214.010249 
L 240.847074 201.248232 
L 241.529538 204.675878 
L 242.212002 211.717392 
L 242.894466 209.68059 
L 244.941858 213.626166 
L 245.624322 213.352653 
L 246.306786 220.109015 
L 246.98925 217.728867 
L 247.671714 217.862714 
L 249.719106 226.923571 
L 250.40157 227.592806 
L 251.084034 215.692065 
L 251.766498 222.809232 
L 252.448962 220.277778 
L 254.496354 220.696778 
L 255.178818 228.814887 
L 255.861282 228.128194 
L 256.543746 227.767389 
L 257.22621 237.968856 
L 259.273602 237.241427 
L 259.956066 232.614977 
L 262.003458 229.681983 
L 264.050849 226.172864 
L 264.733313 230.444328 
L 265.415777 226.719891 
L 266.098241 227.528792 
L 266.780705 222.139997 
L 268.828097 227.127251 
L 269.510561 222.355316 
L 270.193025 219.13717 
L 270.875489 211.408962 
L 271.557953 209.907548 
L 273.605345 211.321671 
L 274.287809 218.846198 
L 274.970273 217.146923 
L 275.652737 220.923736 
L 278.382593 216.169259 
L 279.065057 214.021888 
L 280.429985 201.36462 
L 281.112449 191.011848 
L 283.159841 182.317615 
L 283.842305 195.760506 
L 284.524769 198.518917 
L 285.207233 194.061231 
L 285.889697 187.741327 
L 286.572161 179.39626 
L 287.937089 190.546294 
L 288.619553 199.531499 
L 289.302017 210.669894 
L 289.984481 207.946399 
L 290.666945 217.90345 
L 292.714337 213.346833 
L 293.396801 213.99861 
L 294.079265 212.340071 
L 294.761729 215.785176 
L 295.444193 209.855173 
L 297.491585 207.056026 
L 298.174049 215.494204 
L 298.856513 221.744276 
L 299.538977 222.337858 
L 300.221441 222.396052 
L 302.268833 225.608379 
L 302.951297 226.335809 
L 304.316225 228.110736 
L 304.998689 249.916152 
L 307.04608 249.782305 
L 307.728544 252.273023 
L 308.411008 235.169708 
L 309.093472 237.450926 
L 309.775936 232.131964 
L 311.823328 233.359865 
L 312.505792 230.525801 
L 313.188256 227.034141 
L 313.87072 234.459737 
L 316.600576 240.669073 
L 317.28304 240.669073 
L 317.965504 236.921358 
L 318.647968 222.489163 
L 319.330432 224.479409 
L 321.377824 226.475475 
L 322.060288 220.848083 
L 322.742752 220.324334 
L 323.425216 221.313638 
L 324.10768 210.175242 
L 326.837536 214.376873 
L 327.52 198.478181 
L 328.202464 194.28237 
L 328.884928 200.107623 
L 330.93232 196.33081 
L 331.614784 181.95681 
L 332.297248 163.322985 
L 333.662176 162.071807 
L 336.392032 157.288232 
L 337.074496 154.390155 
L 337.75696 149.92083 
L 340.486816 157.067094 
L 341.16928 152.143853 
L 341.851744 139.480766 
L 342.534208 149.071193 
L 343.216672 153.889683 
L 345.264064 152.923657 
L 345.946528 148.326305 
L 346.628992 151.748132 
L 347.99392 167.798129 
L 350.041311 161.047586 
L 350.723775 157.032177 
L 351.406239 161.978696 
L 352.771167 152.085659 
L 354.818559 132.008614 
L 355.501023 146.382614 
L 356.183487 146.499003 
L 356.865951 148.710388 
L 357.548415 144.462201 
L 359.595807 142.367205 
L 360.278271 153.016768 
L 360.960735 145.393311 
L 361.643199 151.911076 
L 362.325663 146.208031 
L 364.373055 141.727068 
L 365.055519 145.044145 
L 365.737983 147.779278 
L 366.420447 145.160533 
L 367.102911 143.414703 
L 369.150303 132.415974 
L 370.515231 139.74846 
L 371.197695 132.997918 
L 371.880159 132.125003 
L 373.927551 121.708217 
L 374.610015 125.199877 
L 375.292479 127.178484 
L 375.974943 136.547772 
L 376.657407 136.489578 
L 378.704799 137.59527 
L 379.387263 136.664161 
L 380.069727 136.198606 
L 380.752191 137.886242 
L 381.434655 134.51097 
L 383.482047 136.547772 
L 384.164511 131.01931 
L 384.846975 120.427942 
L 385.529439 106.461302 
L 386.211903 110.360322 
L 388.259295 103.784363 
L 388.941759 116.296144 
L 389.624223 110.884071 
L 390.306687 110.360322 
L 390.989151 113.037262 
L 393.036542 99.943537 
L 393.719006 105.181027 
L 394.40147 100.176314 
L 395.083934 100.641869 
L 395.766398 114.550314 
L 398.496254 111.40782 
L 399.178718 111.291432 
L 399.861182 108.84727 
L 400.543646 117.227254 
L 402.591038 123.512241 
L 403.273502 120.369747 
L 403.955966 119.089472 
L 404.63843 124.501545 
L 405.320894 133.69625 
L 407.368286 130.146395 
L 408.05075 129.971812 
L 408.733214 115.888784 
L 410.098142 109.952962 
L 412.145534 111.233237 
L 412.827998 128.86612 
L 413.510462 155.984679 
L 414.192926 147.371918 
L 414.87539 157.788704 
L 416.922782 158.428841 
L 417.605246 163.491748 
L 418.28771 159.127173 
L 418.970174 167.623546 
L 421.70003 151.736493 
L 422.382494 144.753173 
L 423.064958 121.242662 
L 423.747422 133.288889 
L 424.429886 139.3411 
L 426.477278 138.759157 
L 427.159742 113.735594 
L 428.52467 118.914889 
L 429.207134 106.926857 
L 431.254526 104.308112 
L 431.93699 99.070622 
L 432.619454 97.150209 
L 433.301918 76.782192 
L 433.984382 77.596913 
L 436.031773 72.99956 
L 436.714237 69.857066 
L 437.396701 63.281107 
L 438.079165 51.467657 
L 438.761629 57.694451 
L 440.809021 61.768054 
L 441.491485 62.873746 
L 442.173949 75.094556 
L 442.856413 74.74539 
L 443.538877 78.353439 
L 445.586269 79.866492 
L 446.268733 94.124103 
L 446.951197 89.875917 
L 447.633661 91.854524 
L 448.316125 95.69535 
L 450.363517 94.706047 
L 451.045981 87.489949 
L 451.728445 90.341472 
L 453.093373 87.315366 
L 455.140765 85.162176 
L 455.823229 99.594371 
L 456.505693 105.530193 
L 457.188157 100.874646 
L 457.870621 101.398395 
L 459.918013 102.504087 
L 460.600477 109.66199 
L 461.282941 103.027836 
L 461.965405 83.47454 
L 462.647869 76.782192 
L 464.695261 78.295245 
L 465.377725 77.713301 
L 466.742653 78.528022 
L 467.425117 80.273852 
L 470.154973 102.620476 
L 470.837437 103.60978 
L 471.519901 102.795059 
L 472.202365 105.471998 
L 474.249757 107.334217 
L 474.932221 98.954233 
L 476.297149 84.871204 
L 476.979613 68.111236 
L 479.027004 70.904564 
L 479.709468 92.20369 
L 480.391932 100.409091 
L 481.074396 103.726168 
L 481.75686 109.312824 
L 484.486716 105.064638 
L 485.16918 101.049229 
L 485.851644 107.5088 
L 486.534108 108.207132 
L 488.5815 107.91616 
L 489.263964 101.922144 
L 489.946428 100.350897 
L 490.628892 106.635885 
L 491.311356 104.366306 
L 493.358748 108.148938 
L 494.041212 100.93284 
L 494.723676 106.868662 
L 495.40614 100.816452 
L 496.088604 90.981609 
L 498.135996 104.191723 
L 498.81846 99.943537 
L 499.500924 106.403108 
L 500.183388 104.249917 
L 500.865852 96.277294 
L 502.913244 82.019682 
L 504.278172 75.269139 
L 504.960636 81.72871 
L 505.6431 74.454419 
L 507.690492 76.782192 
L 508.372956 79.342743 
L 509.05542 82.950791 
L 510.420348 82.65982 
L 512.46774 81.612322 
L 513.150204 84.929399 
L 513.832668 82.834403 
L 515.197596 88.246476 
L 517.244988 83.358152 
L 517.927452 71.370119 
L 518.609916 64.910548 
L 519.29238 82.543431 
L 519.974844 89.061196 
L 522.022235 93.018411 
L 522.704699 95.986322 
L 523.387163 97.324792 
L 524.069627 97.324792 
L 524.752091 98.255901 
L 526.799483 93.018411 
L 527.481947 99.943537 
L 528.164411 109.429213 
L 528.846875 94.356881 
L 529.529339 105.646581 
L 532.259195 99.710759 
L 532.941659 115.714201 
L 533.624123 118.682112 
L 534.306587 102.67867 
L 536.353979 99.419788 
L 537.036443 100.176314 
L 537.718907 100.52548 
L 538.401371 101.514784 
L 539.083835 96.801043 
L 541.131227 104.715472 
L 541.813691 101.165618 
L 542.496155 84.231067 
L 543.178619 74.570807 
L 543.861083 88.71203 
L 546.590939 69.5079 
L 547.273403 65.958046 
L 547.955867 73.814281 
L 548.638331 74.978168 
L 550.685723 72.18484 
L 551.368187 67.529293 
L 552.050651 68.053042 
L 552.733115 70.497204 
L 553.415579 86.15148 
L 555.462971 91.214387 
L 556.827899 99.303399 
L 557.510363 90.748832 
L 558.192827 88.421059 
L 560.240219 99.245205 
L 560.922683 90.166889 
L 561.605147 95.578962 
L 562.287611 111.233237 
L 562.970075 108.730881 
L 565.017466 104.831861 
L 565.69993 103.027836 
L 566.382394 99.827148 
L 567.064858 124.443351 
L 567.747322 130.844727 
L 569.794714 145.800671 
L 570.477178 143.065537 
L 571.159642 127.52765 
L 572.52457 144.636784 
L 574.571962 153.598712 
L 574.571962 153.598712 
" clip-path="url(#p4f211da718)" style="fill: none; stroke: #b9c4d4; stroke-width: 0.8; stroke-linecap: square"/>
   </g>
   <g id="line2d_38">
    <path d="M 80.468038 224.589979 
L 85.245286 231.724604 
L 90.022534 241.437238 
L 94.799781 226.056476 
L 99.577029 232.556783 
L 104.354277 195.056355 
L 109.131525 192.728581 
L 113.908773 174.816365 
L 118.686021 181.904435 
L 123.463269 148.879151 
L 128.240517 157.014719 
L 133.017765 164.387941 
L 137.795012 147.482487 
L 142.57226 139.189795 
L 147.349508 111.227418 
L 152.126756 100.647688 
L 156.904004 101.24709 
L 161.681252 118.990542 
L 166.4585 116.668588 
L 171.235748 117.908127 
L 176.012996 110.575641 
L 180.790243 103.289711 
L 185.567491 104.651458 
L 190.344739 70.95112 
L 195.121987 61.936818 
L 199.899235 55.157178 
L 204.676483 62.466386 
L 209.453731 88.944808 
L 214.230979 99.571093 
L 219.008227 124.920544 
L 223.785474 122.167952 
L 228.562722 115.871326 
L 233.33997 212.654321 
L 238.117218 220.481459 
L 242.894466 209.68059 
L 247.671714 217.862714 
L 252.448962 220.277778 
L 257.22621 237.968856 
L 262.003458 229.681983 
L 266.780705 222.139997 
L 271.557953 209.907548 
L 276.335201 219.777307 
L 281.112449 191.011848 
L 285.889697 187.741327 
L 290.666945 217.90345 
L 295.444193 209.855173 
L 300.221441 222.396052 
L 304.998689 249.916152 
L 309.775936 232.131964 
L 314.553184 234.459737 
L 319.330432 224.479409 
L 324.10768 210.175242 
L 328.884928 200.107623 
L 333.662176 162.071807 
L 338.439424 149.92083 
L 343.216672 153.889683 
L 347.99392 167.798129 
L 352.771167 152.085659 
L 357.548415 144.462201 
L 362.325663 146.208031 
L 367.102911 143.414703 
L 371.880159 132.125003 
L 376.657407 136.489578 
L 381.434655 134.51097 
L 386.211903 110.360322 
L 390.989151 113.037262 
L 395.766398 114.550314 
L 400.543646 117.227254 
L 405.320894 133.69625 
L 410.098142 109.952962 
L 414.87539 157.788704 
L 419.652638 167.623546 
L 424.429886 139.3411 
L 429.207134 106.926857 
L 433.984382 77.596913 
L 438.761629 57.694451 
L 443.538877 78.353439 
L 448.316125 95.69535 
L 453.093373 87.315366 
L 457.870621 101.398395 
L 462.647869 76.782192 
L 467.425117 80.273852 
L 472.202365 105.471998 
L 476.979613 68.111236 
L 481.75686 109.312824 
L 486.534108 108.207132 
L 491.311356 104.366306 
L 496.088604 90.981609 
L 500.865852 96.277294 
L 505.6431 74.454419 
L 510.420348 82.65982 
L 515.197596 88.246476 
L 519.974844 89.061196 
L 524.752091 98.255901 
L 529.529339 105.646581 
L 534.306587 102.67867 
L 539.083835 96.801043 
L 543.861083 88.71203 
L 548.638331 74.978168 
L 553.415579 86.15148 
L 558.192827 88.421059 
L 562.970075 108.730881 
L 567.747322 130.844727 
L 572.52457 144.636784 
L 577.301818 153.598712 
" clip-path="url(#p4f211da718)" style="fill: none; stroke: #2b4c7e; stroke-width: 1.3; stroke-linecap: square"/>
   </g>
   <g id="line2d_39">
    <path d="M 171.235748 166.225718 
L 176.012996 160.525001 
L 180.790243 154.103257 
L 185.567491 147.263968 
L 190.344739 139.5087 
L 195.121987 130.977701 
L 199.899235 123.982743 
L 204.676483 117.469633 
L 209.453731 113.176055 
L 214.230979 109.059388 
L 219.008227 107.861458 
L 223.785474 106.119119 
L 228.562722 103.693288 
L 233.33997 106.95188 
L 238.117218 111.016463 
L 242.894466 115.939122 
L 247.671714 121.799873 
L 252.448962 127.751408 
L 257.22621 133.700323 
L 262.003458 139.350993 
L 266.780705 144.562587 
L 271.557953 149.529182 
L 276.335201 155.353562 
L 281.112449 159.671581 
L 285.889697 165.511092 
L 290.666945 173.309423 
L 295.444193 181.044323 
L 300.221441 189.040806 
L 304.998689 197.089374 
L 309.775936 203.717417 
L 314.553184 209.194377 
L 319.330432 214.30995 
L 324.10768 219.025145 
L 328.884928 218.397811 
L 333.662176 215.477328 
L 338.439424 212.48934 
L 343.216672 209.290688 
L 347.99392 206.666706 
L 352.771167 202.372546 
L 357.548415 198.111557 
L 362.325663 194.314959 
L 367.102911 190.990316 
L 371.880159 186.607701 
L 376.657407 183.881588 
L 381.434655 181.22007 
L 386.211903 175.842914 
L 390.989151 171.002018 
L 395.766398 165.609731 
L 400.543646 158.975286 
L 405.320894 154.0535 
L 410.098142 147.828162 
L 414.87539 144.493626 
L 419.652638 142.366041 
L 424.429886 139.327715 
L 429.207134 136.570468 
L 433.984382 132.954272 
L 438.761629 128.14451 
L 443.538877 123.672276 
L 448.316125 120.85276 
L 453.093373 117.995419 
L 457.870621 115.754937 
L 462.647869 112.423311 
L 467.425117 109.830754 
L 472.202365 108.279875 
L 476.979613 104.959888 
L 481.75686 104.907513 
L 486.534108 104.666007 
L 491.311356 104.156806 
L 496.088604 102.844524 
L 500.865852 100.973576 
L 505.6431 99.198649 
L 510.420348 95.442205 
L 515.197596 91.473351 
L 519.974844 88.959356 
L 524.752091 88.525808 
L 529.529339 89.928292 
L 534.306587 92.177503 
L 539.083835 93.099883 
L 543.861083 92.750717 
L 548.638331 92.133857 
L 553.415579 91.371511 
L 558.192827 91.953455 
L 562.970075 93.376306 
L 567.747322 94.644943 
L 572.52457 98.47122 
L 577.301818 100.685514 
" clip-path="url(#p4f211da718)" style="fill: none; stroke: #c77d21; stroke-width: 1.2; stroke-linecap: square"/>
   </g>
   <g id="line2d_40">
    <path d="M 218.325763 263.16031 
L 218.325763 23.64 
" clip-path="url(#p4f211da718)" style="fill: none; stroke-dasharray: 2.96,1.28; stroke-dashoffset: 0; stroke: #b3403a; stroke-width: 0.8"/>
   </g>
   <g id="line2d_41">
    <path d="M 304.998689 263.16031 
L 304.998689 23.64 
" clip-path="url(#p4f211da718)" style="fill: none; stroke-dasharray: 2.96,1.28; stroke-dashoffset: 0; stroke: #b3403a; stroke-width: 0.8"/>
   </g>
   <g id="patch_3">
    <path d="M 52.76 263.16031 
L 52.76 23.64 
" style="fill: none; stroke: #555555; stroke-width: 0.8; stroke-linejoin: miter; stroke-linecap: square"/>
   </g>
   <g id="patch_4">
    <path d="M 52.76 263.16031 
L 602.28 263.16031 
" style="fill: none; stroke: #555555; stroke-width: 0.8; stroke-linejoin: miter; stroke-linecap: square"/>
   </g>
   <g id="text_11">
    <text style="font-size: 10px; font-family: 'DejaVu Sans'; text-anchor: start; fill: #222222" x="52.76" y="17.64" transform="rotate(-0 52.76 17.64)">Weekly trend on top, daily RSI(14) underneath</text>
   </g>
   <g id="legend_1">
    <g id="line2d_42">
     <path d="M 59.96 34.11875 
L 67.96 34.11875 
L 75.96 34.11875 
" style="fill: none; stroke: #b9c4d4; stroke-width: 0.8; stroke-linecap: square"/>
    </g>
    <g id="text_12">
     <text style="font-size: 8px; font-family: 'DejaVu Sans'; text-anchor: start" x="82.36" y="36.91875" transform="rotate(-0 82.36 36.91875)">Daily close</text>
    </g>
    <g id="line2d_43">
     <path d="M 59.96 46.119375 
L 67.96 46.119375 
L 75.96 46.119375 
" style="fill: none; stroke: #2b4c7e; stroke-width: 1.3; stroke-linecap: square"/>
    </g>
    <g id="text_13">
     <text style="font-size: 8px; font-family: 'DejaVu Sans'; text-anchor: start" x="82.36" y="48.919375" transform="rotate(-0 82.36 48.919375)">Weekly close</text>
    </g>
    <g id="line2d_44">
     <path d="M 59.96 58.12 
L 67.96 58.12 
L 75.96 58.12 
" style="fill: none; stroke: #c77d21; stroke-width: 1.2; stroke-linecap: square"/>
    </g>
    <g id="text_14">
     <text style="font-size: 8px; font-family: 'DejaVu Sans'; text-anchor: start" x="82.36" y="60.92" transform="rotate(-0 82.36 60.92)">20-week SMA (weekly trend)</text>
    </g>
   </g>
  </g>
  <g id="axes_2">
   <g id="patch_5">
    <path d="M 52.76 391.88 
L 602.28 391.88 
L 602.28 280.103856 
L 52.76 280.103856 
z
" style="fill: #ffffff"/>
   </g>
   <g id="matplotlib.axis_3">
    <g id="xtick_10">
     <g id="line2d_45">
      <path d="M 56.581798 391.88 
L 56.581798 280.103856 
" clip-path="url(#pb3bc546750)" style="fill: none; stroke: #e8e8e8; stroke-width: 0.7; stroke-linecap: square"/>
     </g>
     <g id="line2d_46">
      <g>
       <use xlink:href="#m043c0d7d0b" x="56.581798" y="391.88" style="fill: #555555; stroke: #555555; stroke-width: 0.8"/>
      </g>
     </g>
     <g id="text_15">
      <text style="font-size: 9px; font-family: 'DejaVu Sans'; text-anchor: middle; fill: #555555" x="56.581798" y="405.717891" transform="rotate(-0 56.581798 405.717891)">Mar 24</text>
     </g>
    </g>
    <g id="xtick_11">
     <g id="line2d_47">
      <path d="M 119.368485 391.88 
L 119.368485 280.103856 
" clip-path="url(#pb3bc546750)" style="fill: none; stroke: #e8e8e8; stroke-width: 0.7; stroke-linecap: square"/>
     </g>
     <g id="line2d_48">
      <g>
       <use xlink:href="#m043c0d7d0b" x="119.368485" y="391.88" style="fill: #555555; stroke: #555555; stroke-width: 0.8"/>
      </g>
     </g>
     <g id="text_16">
      <text style="font-size: 9px; font-family: 'DejaVu Sans'; text-anchor: middle; fill: #555555" x="119.368485" y="405.717891" transform="rotate(-0 119.368485 405.717891)">Jun 24</text>
     </g>
    </g>
    <g id="xtick_12">
     <g id="line2d_49">
      <path d="M 182.155171 391.88 
L 182.155171 280.103856 
" clip-path="url(#pb3bc546750)" style="fill: none; stroke: #e8e8e8; stroke-width: 0.7; stroke-linecap: square"/>
     </g>
     <g id="line2d_50">
      <g>
       <use xlink:href="#m043c0d7d0b" x="182.155171" y="391.88" style="fill: #555555; stroke: #555555; stroke-width: 0.8"/>
      </g>
     </g>
     <g id="text_17">
      <text style="font-size: 9px; font-family: 'DejaVu Sans'; text-anchor: middle; fill: #555555" x="182.155171" y="405.717891" transform="rotate(-0 182.155171 405.717891)">Sep 24</text>
     </g>
    </g>
    <g id="xtick_13">
     <g id="line2d_51">
      <path d="M 244.259394 391.88 
L 244.259394 280.103856 
" clip-path="url(#pb3bc546750)" style="fill: none; stroke: #e8e8e8; stroke-width: 0.7; stroke-linecap: square"/>
     </g>
     <g id="line2d_52">
      <g>
       <use xlink:href="#m043c0d7d0b" x="244.259394" y="391.88" style="fill: #555555; stroke: #555555; stroke-width: 0.8"/>
      </g>
     </g>
     <g id="text_18">
      <text style="font-size: 9px; font-family: 'DejaVu Sans'; text-anchor: middle; fill: #555555" x="244.259394" y="405.717891" transform="rotate(-0 244.259394 405.717891)">Dec 24</text>
     </g>
    </g>
    <g id="xtick_14">
     <g id="line2d_53">
      <path d="M 305.681153 391.88 
L 305.681153 280.103856 
" clip-path="url(#pb3bc546750)" style="fill: none; stroke: #e8e8e8; stroke-width: 0.7; stroke-linecap: square"/>
     </g>
     <g id="line2d_54">
      <g>
       <use xlink:href="#m043c0d7d0b" x="305.681153" y="391.88" style="fill: #555555; stroke: #555555; stroke-width: 0.8"/>
      </g>
     </g>
     <g id="text_19">
      <text style="font-size: 9px; font-family: 'DejaVu Sans'; text-anchor: middle; fill: #555555" x="305.681153" y="405.717891" transform="rotate(-0 305.681153 405.717891)">Mar 25</text>
     </g>
    </g>
    <g id="xtick_15">
     <g id="line2d_55">
      <path d="M 368.467839 391.88 
L 368.467839 280.103856 
" clip-path="url(#pb3bc546750)" style="fill: none; stroke: #e8e8e8; stroke-width: 0.7; stroke-linecap: square"/>
     </g>
     <g id="line2d_56">
      <g>
       <use xlink:href="#m043c0d7d0b" x="368.467839" y="391.88" style="fill: #555555; stroke: #555555; stroke-width: 0.8"/>
      </g>
     </g>
     <g id="text_20">
      <text style="font-size: 9px; font-family: 'DejaVu Sans'; text-anchor: middle; fill: #555555" x="368.467839" y="405.717891" transform="rotate(-0 368.467839 405.717891)">Jun 25</text>
     </g>
    </g>
    <g id="xtick_16">
     <g id="line2d_57">
      <path d="M 431.254526 391.88 
L 431.254526 280.103856 
" clip-path="url(#pb3bc546750)" style="fill: none; stroke: #e8e8e8; stroke-width: 0.7; stroke-linecap: square"/>
     </g>
     <g id="line2d_58">
      <g>
       <use xlink:href="#m043c0d7d0b" x="431.254526" y="391.88" style="fill: #555555; stroke: #555555; stroke-width: 0.8"/>
      </g>
     </g>
     <g id="text_21">
      <text style="font-size: 9px; font-family: 'DejaVu Sans'; text-anchor: middle; fill: #555555" x="431.254526" y="405.717891" transform="rotate(-0 431.254526 405.717891)">Sep 25</text>
     </g>
    </g>
    <g id="xtick_17">
     <g id="line2d_59">
      <path d="M 493.358748 391.88 
L 493.358748 280.103856 
" clip-path="url(#pb3bc546750)" style="fill: none; stroke: #e8e8e8; stroke-width: 0.7; stroke-linecap: square"/>
     </g>
     <g id="line2d_60">
      <g>
       <use xlink:href="#m043c0d7d0b" x="493.358748" y="391.88" style="fill: #555555; stroke: #555555; stroke-width: 0.8"/>
      </g>
     </g>
     <g id="text_22">
      <text style="font-size: 9px; font-family: 'DejaVu Sans'; text-anchor: middle; fill: #555555" x="493.358748" y="405.717891" transform="rotate(-0 493.358748 405.717891)">Dec 25</text>
     </g>
    </g>
    <g id="xtick_18">
     <g id="line2d_61">
      <path d="M 554.780507 391.88 
L 554.780507 280.103856 
" clip-path="url(#pb3bc546750)" style="fill: none; stroke: #e8e8e8; stroke-width: 0.7; stroke-linecap: square"/>
     </g>
     <g id="line2d_62">
      <g>
       <use xlink:href="#m043c0d7d0b" x="554.780507" y="391.88" style="fill: #555555; stroke: #555555; stroke-width: 0.8"/>
      </g>
     </g>
     <g id="text_23">
      <text style="font-size: 9px; font-family: 'DejaVu Sans'; text-anchor: middle; fill: #555555" x="554.780507" y="405.717891" transform="rotate(-0 554.780507 405.717891)">Mar 26</text>
     </g>
    </g>
   </g>
   <g id="matplotlib.axis_4">
    <g id="ytick_10">
     <g id="line2d_63">
      <path d="M 52.76 391.88 
L 602.28 391.88 
" clip-path="url(#pb3bc546750)" style="fill: none; stroke: #e8e8e8; stroke-width: 0.7; stroke-linecap: square"/>
     </g>
     <g id="line2d_64">
      <g>
       <use xlink:href="#m736312f9e6" x="52.76" y="391.88" style="fill: #555555; stroke: #555555; stroke-width: 0.8"/>
      </g>
     </g>
     <g id="text_24">
      <text style="font-size: 9px; font-family: 'DejaVu Sans'; text-anchor: end; fill: #555555" x="45.76" y="395.298945" transform="rotate(-0 45.76 395.298945)">0</text>
     </g>
    </g>
    <g id="ytick_11">
     <g id="line2d_65">
      <path d="M 52.76 369.524771 
L 602.28 369.524771 
" clip-path="url(#pb3bc546750)" style="fill: none; stroke: #e8e8e8; stroke-width: 0.7; stroke-linecap: square"/>
     </g>
     <g id="line2d_66">
      <g>
       <use xlink:href="#m736312f9e6" x="52.76" y="369.524771" style="fill: #555555; stroke: #555555; stroke-width: 0.8"/>
      </g>
     </g>
     <g id="text_25">
      <text style="font-size: 9px; font-family: 'DejaVu Sans'; text-anchor: end; fill: #555555" x="45.76" y="372.943716" transform="rotate(-0 45.76 372.943716)">20</text>
     </g>
    </g>
    <g id="ytick_12">
     <g id="line2d_67">
      <path d="M 52.76 347.169542 
L 602.28 347.169542 
" clip-path="url(#pb3bc546750)" style="fill: none; stroke: #e8e8e8; stroke-width: 0.7; stroke-linecap: square"/>
     </g>
     <g id="line2d_68">
      <g>
       <use xlink:href="#m736312f9e6" x="52.76" y="347.169542" style="fill: #555555; stroke: #555555; stroke-width: 0.8"/>
      </g>
     </g>
     <g id="text_26">
      <text style="font-size: 9px; font-family: 'DejaVu Sans'; text-anchor: end; fill: #555555" x="45.76" y="350.588488" transform="rotate(-0 45.76 350.588488)">40</text>
     </g>
    </g>
    <g id="ytick_13">
     <g id="line2d_69">
      <path d="M 52.76 324.814313 
L 602.28 324.814313 
" clip-path="url(#pb3bc546750)" style="fill: none; stroke: #e8e8e8; stroke-width: 0.7; stroke-linecap: square"/>
     </g>
     <g id="line2d_70">
      <g>
       <use xlink:href="#m736312f9e6" x="52.76" y="324.814313" style="fill: #555555; stroke: #555555; stroke-width: 0.8"/>
      </g>
     </g>
     <g id="text_27">
      <text style="font-size: 9px; font-family: 'DejaVu Sans'; text-anchor: end; fill: #555555" x="45.76" y="328.233259" transform="rotate(-0 45.76 328.233259)">60</text>
     </g>
    </g>
    <g id="ytick_14">
     <g id="line2d_71">
      <path d="M 52.76 302.459084 
L 602.28 302.459084 
" clip-path="url(#pb3bc546750)" style="fill: none; stroke: #e8e8e8; stroke-width: 0.7; stroke-linecap: square"/>
     </g>
     <g id="line2d_72">
      <g>
       <use xlink:href="#m736312f9e6" x="52.76" y="302.459084" style="fill: #555555; stroke: #555555; stroke-width: 0.8"/>
      </g>
     </g>
     <g id="text_28">
      <text style="font-size: 9px; font-family: 'DejaVu Sans'; text-anchor: end; fill: #555555" x="45.76" y="305.87803" transform="rotate(-0 45.76 305.87803)">80</text>
     </g>
    </g>
    <g id="ytick_15">
     <g id="line2d_73">
      <path d="M 52.76 280.103856 
L 602.28 280.103856 
" clip-path="url(#pb3bc546750)" style="fill: none; stroke: #e8e8e8; stroke-width: 0.7; stroke-linecap: square"/>
     </g>
     <g id="line2d_74">
      <g>
       <use xlink:href="#m736312f9e6" x="52.76" y="280.103856" style="fill: #555555; stroke: #555555; stroke-width: 0.8"/>
      </g>
     </g>
     <g id="text_29">
      <text style="font-size: 9px; font-family: 'DejaVu Sans'; text-anchor: end; fill: #555555" x="45.76" y="283.522801" transform="rotate(-0 45.76 283.522801)">100</text>
     </g>
    </g>
    <g id="text_30">
     <text style="font-size: 9px; font-family: 'DejaVu Sans'; text-anchor: middle; fill: #555555" x="22.419141" y="335.991928" transform="rotate(-90 22.419141 335.991928)">Daily RSI</text>
    </g>
   </g>
   <g id="line2d_75">
    <path d="M 78.420646 280.103856 
L 79.10311 337.57491 
L 79.785574 345.778012 
L 80.468038 345.973598 
L 82.51543 339.221189 
L 83.197894 350.011762 
L 83.880358 343.874148 
L 85.245286 357.20904 
L 87.292678 353.306229 
L 87.975142 357.249097 
L 90.022534 366.904498 
L 92.752389 335.135589 
L 93.434853 330.156672 
L 94.117317 327.884985 
L 94.799781 335.769684 
L 96.847173 335.871718 
L 97.529637 339.924609 
L 98.894565 342.546582 
L 99.577029 344.903849 
L 101.624421 311.199927 
L 102.306885 306.053077 
L 102.989349 303.984484 
L 103.671813 321.514464 
L 104.354277 321.828119 
L 106.401669 318.287192 
L 107.084133 317.73423 
L 107.766597 325.491937 
L 108.449061 321.060387 
L 109.131525 325.856395 
L 111.861381 320.568171 
L 112.543845 316.176426 
L 113.226309 315.538704 
L 113.908773 319.587696 
L 115.956165 322.37974 
L 116.638629 320.138114 
L 117.321093 322.290971 
L 118.003557 325.520663 
L 118.686021 327.452746 
L 120.733413 328.720191 
L 121.415877 318.153436 
L 122.098341 310.779271 
L 122.780805 315.347308 
L 123.463269 314.309871 
L 125.510661 313.181838 
L 126.193125 311.85022 
L 126.875589 320.161044 
L 127.558053 325.799039 
L 128.240517 324.899266 
L 130.970373 324.752579 
L 131.652837 328.337865 
L 132.335301 326.974577 
L 133.017765 331.91215 
L 135.065156 335.059033 
L 136.430084 324.983471 
L 137.112548 324.357644 
L 137.795012 321.116986 
L 139.842404 321.049195 
L 140.524868 329.761407 
L 141.207332 325.914581 
L 141.889796 328.462361 
L 142.57226 319.760251 
L 144.619652 318.420524 
L 145.302116 312.915521 
L 145.98458 309.044851 
L 146.667044 308.803049 
L 147.349508 307.691432 
L 149.3969 306.715037 
L 150.079364 304.549214 
L 154.174148 303.476196 
L 154.856612 301.101108 
L 155.539076 317.572289 
L 156.22154 317.565937 
L 156.904004 314.827495 
L 158.951396 313.326105 
L 160.316324 327.533247 
L 160.998788 333.21531 
L 161.681252 334.205177 
L 163.728644 336.510059 
L 164.411108 323.486292 
L 165.093572 325.355919 
L 165.776036 334.196786 
L 166.4585 334.583883 
L 168.505892 342.362247 
L 169.188356 340.426776 
L 169.87082 341.029801 
L 171.235748 334.45047 
L 173.28314 334.196165 
L 173.965604 331.188318 
L 174.648068 325.364699 
L 175.330532 325.427411 
L 176.012996 330.435456 
L 178.060387 330.040726 
L 178.742851 333.767462 
L 179.425315 340.047233 
L 180.107779 328.270803 
L 180.790243 326.444682 
L 182.837635 321.682821 
L 183.520099 322.384051 
L 184.202563 321.615357 
L 184.885027 330.39234 
L 185.567491 331.08147 
L 187.614883 323.325174 
L 188.297347 321.187708 
L 188.979811 318.579983 
L 189.662275 312.781069 
L 190.344739 311.570255 
L 192.392131 320.000701 
L 193.074595 317.131454 
L 194.439523 315.734985 
L 195.121987 311.447152 
L 197.169379 311.412472 
L 197.851843 312.582651 
L 198.534307 315.957669 
L 199.216771 311.334375 
L 199.899235 310.493772 
L 201.946627 306.837903 
L 202.629091 302.353163 
L 203.994019 316.734104 
L 204.676483 328.749073 
L 206.723875 335.379305 
L 207.406339 329.857154 
L 208.088803 337.33402 
L 208.771267 342.969641 
L 209.453731 344.286567 
L 211.501123 344.312811 
L 212.183587 337.45241 
L 212.866051 335.935823 
L 214.230979 348.18697 
L 216.278371 353.257061 
L 216.960835 355.404304 
L 217.643299 353.531828 
L 218.325763 359.026125 
L 219.008227 354.247247 
L 221.055618 350.01622 
L 221.738082 352.521854 
L 222.420546 343.893441 
L 223.10301 346.696462 
L 223.785474 348.36307 
L 226.51533 352.498975 
L 227.197794 345.28947 
L 227.880258 345.620946 
L 228.562722 341.084884 
L 230.610114 355.59785 
L 231.292578 365.9797 
L 231.975042 364.765304 
L 232.657506 367.346193 
L 235.387362 367.427574 
L 236.069826 367.804969 
L 237.434754 369.58066 
L 238.117218 366.138916 
L 240.16461 361.949892 
L 240.847074 354.279506 
L 241.529538 355.271842 
L 242.212002 357.291385 
L 242.894466 355.987348 
L 244.941858 357.209294 
L 245.624322 357.013823 
L 246.306786 359.216631 
L 246.98925 357.364772 
L 247.671714 357.413631 
L 249.719106 360.637832 
L 250.40157 360.868582 
L 251.084034 350.860552 
L 251.766498 353.892265 
L 252.448962 351.860798 
L 254.496354 352.056228 
L 255.178818 355.738809 
L 255.861282 355.107006 
L 256.543746 354.75416 
L 257.22621 359.405922 
L 259.273602 358.650169 
L 259.956066 353.837325 
L 262.003458 350.810354 
L 264.050849 347.082074 
L 264.733313 349.978374 
L 265.415777 345.979141 
L 266.098241 346.585491 
L 266.780705 340.830287 
L 268.828097 344.885043 
L 269.510561 339.984172 
L 270.193025 336.865462 
L 270.875489 330.127564 
L 271.557953 328.915298 
L 273.605345 330.425879 
L 274.287809 337.853215 
L 274.970273 336.204229 
L 275.652737 339.766035 
L 278.382593 334.749952 
L 279.065057 332.566952 
L 281.112449 314.982735 
L 283.159841 310.575537 
L 283.842305 324.708443 
L 284.524769 327.1932 
L 285.207233 324.345065 
L 286.572161 316.258495 
L 287.937089 326.373782 
L 289.302017 340.343055 
L 289.984481 338.469232 
L 290.666945 344.296855 
L 292.714337 341.021187 
L 293.396801 341.417847 
L 294.079265 340.134809 
L 294.761729 342.448703 
L 295.444193 337.67642 
L 297.491585 335.520075 
L 298.174049 341.63013 
L 298.856513 345.629674 
L 299.538977 346.003139 
L 300.221441 346.042218 
L 302.268833 348.251463 
L 302.951297 348.758304 
L 304.316225 350.035661 
L 304.998689 361.817441 
L 307.04608 361.665635 
L 307.728544 362.750147 
L 308.411008 345.414332 
L 309.093472 346.773373 
L 309.775936 342.21202 
L 311.823328 343.042709 
L 312.505792 340.530687 
L 313.188256 337.491683 
L 313.87072 343.109213 
L 316.600576 347.259452 
L 317.28304 347.259452 
L 317.965504 343.484095 
L 318.647968 331.501083 
L 319.330432 333.150119 
L 321.377824 334.832914 
L 322.060288 330.452855 
L 322.742752 330.052188 
L 323.425216 331.037092 
L 324.10768 322.792008 
L 326.837536 327.055016 
L 327.52 317.621435 
L 328.202464 315.594749 
L 328.884928 321.295651 
L 330.93232 319.252882 
L 332.297248 306.431039 
L 333.662176 306.072701 
L 336.392032 304.69461 
L 337.074496 303.871691 
L 337.75696 302.620277 
L 340.486816 310.040177 
L 341.16928 308.301149 
L 341.851744 304.392825 
L 342.534208 313.278619 
L 343.216672 317.373166 
L 345.264064 316.958658 
L 345.946528 314.971177 
L 346.628992 318.157881 
L 347.99392 330.917311 
L 350.041311 327.223427 
L 350.723775 325.126832 
L 351.406239 328.847591 
L 352.771167 323.433839 
L 354.818559 314.735173 
L 355.501023 325.075461 
L 356.183487 325.153451 
L 356.865951 326.710208 
L 357.548415 324.564259 
L 359.595807 323.503003 
L 360.278271 331.405303 
L 360.960735 327.208558 
L 361.643199 331.738461 
L 362.325663 328.541398 
L 364.373055 326.130024 
L 365.055519 328.639853 
L 365.737983 330.7132 
L 366.420447 329.058304 
L 367.102911 327.935387 
L 369.150303 321.494023 
L 370.515231 327.929913 
L 371.197695 323.828832 
L 371.880159 323.31286 
L 373.927551 317.623066 
L 374.610015 320.992632 
L 375.292479 322.902729 
L 375.974943 331.235841 
L 376.657407 331.194555 
L 378.704799 332.180869 
L 379.387263 331.424431 
L 380.069727 331.026149 
L 380.752191 332.815589 
L 381.434655 329.675942 
L 383.482047 331.993996 
L 384.164511 326.896861 
L 385.529439 311.498703 
L 386.211903 315.909039 
L 388.259295 312.664194 
L 388.941759 325.070221 
L 389.624223 322.01279 
L 390.306687 321.717905 
L 390.989151 324.333957 
L 393.036542 317.073017 
L 393.719006 322.013704 
L 394.40147 319.34657 
L 395.083934 319.806067 
L 395.766398 332.008762 
L 398.496254 329.912967 
L 399.178718 329.828529 
L 399.861182 327.992565 
L 400.543646 335.657374 
L 402.591038 340.624158 
L 403.273502 337.876027 
L 403.955966 336.747527 
L 404.63843 341.249852 
L 405.320894 347.831299 
L 407.368286 344.358542 
L 408.05075 344.184516 
L 408.733214 331.979229 
L 410.098142 327.696995 
L 412.145534 328.94568 
L 413.510462 356.253286 
L 414.192926 349.803506 
L 414.87539 353.984174 
L 416.922782 354.231731 
L 417.605246 356.216107 
L 418.28771 352.665421 
L 418.970174 356.158905 
L 421.70003 344.590454 
L 422.382494 340.259098 
L 423.064958 328.478724 
L 423.747422 334.661657 
L 424.429886 337.529452 
L 426.477278 337.232954 
L 427.159742 326.209386 
L 428.52467 328.917417 
L 429.207134 324.367612 
L 431.254526 323.41786 
L 431.93699 321.504553 
L 432.619454 320.794795 
L 433.301918 314.131705 
L 433.984382 314.676284 
L 436.031773 313.264785 
L 436.714237 312.297246 
L 437.396701 310.311052 
L 438.079165 307.089997 
L 438.761629 311.929295 
L 441.491485 315.878631 
L 442.173949 324.799781 
L 442.856413 324.638932 
L 443.538877 327.228081 
L 445.586269 328.333133 
L 446.268733 337.726206 
L 446.951197 335.116924 
L 447.633661 336.377541 
L 448.316125 338.840006 
L 450.363517 338.125936 
L 451.045981 333.067984 
L 451.728445 335.1717 
L 453.093373 333.00893 
L 455.140765 331.463266 
L 455.823229 341.985446 
L 456.505693 345.558689 
L 457.188157 341.825165 
L 457.870621 342.168698 
L 459.918013 342.932447 
L 460.600477 347.668008 
L 461.282941 341.718153 
L 461.965405 328.258173 
L 462.647869 324.66971 
L 464.695261 325.867443 
L 465.377725 325.532121 
L 466.742653 326.257074 
L 467.425117 327.871066 
L 470.154973 344.323627 
L 470.837437 344.930816 
L 471.519901 344.20497 
L 472.202365 346.021823 
L 474.249757 347.294732 
L 474.932221 339.328062 
L 476.297149 328.86462 
L 476.979613 319.862096 
L 479.027004 322.172082 
L 479.709468 336.704547 
L 480.391932 341.096917 
L 481.074396 342.797963 
L 481.75686 345.609124 
L 484.486716 342.618313 
L 485.16918 339.694321 
L 485.851644 343.606036 
L 486.534108 344.023672 
L 488.5815 343.776493 
L 489.263964 338.74571 
L 489.946428 337.466266 
L 490.628892 342.140985 
L 491.311356 340.135351 
L 493.358748 342.973283 
L 494.041212 336.606787 
L 494.723676 341.156974 
L 495.40614 336.095729 
L 496.088604 329.001923 
L 498.135996 338.740502 
L 498.81846 335.755425 
L 499.500924 340.074099 
L 500.183388 338.462106 
L 500.865852 332.812566 
L 502.913244 324.529763 
L 504.278172 321.11313 
L 504.960636 326.481237 
L 505.6431 322.574191 
L 507.690492 324.52951 
L 508.372956 326.707666 
L 509.05542 329.756459 
L 510.420348 329.555545 
L 512.46774 328.791754 
L 513.150204 331.948475 
L 513.832668 330.24212 
L 515.197596 335.607793 
L 517.244988 331.138793 
L 517.927452 322.189424 
L 518.609916 318.302442 
L 519.29238 334.013655 
L 519.974844 338.547017 
L 522.022235 341.145803 
L 522.704699 343.066933 
L 523.387163 343.948429 
L 524.069627 343.948429 
L 524.752091 344.636741 
L 526.799483 339.472265 
L 528.164411 351.001993 
L 528.846875 338.010008 
L 529.529339 344.94748 
L 532.259195 340.540531 
L 532.941659 349.00162 
L 533.624123 350.367998 
L 534.306587 339.396191 
L 536.353979 337.433012 
L 537.036443 337.879999 
L 537.718907 338.099451 
L 538.401371 338.758171 
L 539.083835 335.289806 
L 541.131227 340.756036 
L 541.813691 338.052301 
L 542.496155 327.254138 
L 543.178619 322.411053 
L 543.861083 332.092324 
L 546.590939 323.156091 
L 547.273403 321.652717 
L 547.955867 327.048403 
L 548.638331 327.833489 
L 550.685723 326.384951 
L 551.368187 323.994148 
L 552.050651 324.416376 
L 552.733115 326.461227 
L 553.415579 337.773053 
L 555.462971 340.846577 
L 556.827899 345.390384 
L 557.510363 339.379622 
L 558.192827 337.822406 
L 560.240219 344.107185 
L 560.922683 338.02491 
L 561.605147 341.121712 
L 562.287611 348.832349 
L 562.970075 347.08085 
L 565.017466 344.334195 
L 565.69993 343.048004 
L 566.382394 340.728474 
L 567.064858 352.689908 
L 567.747322 355.098645 
L 569.794714 360.024903 
L 570.477178 357.970939 
L 571.159642 347.39145 
L 572.52457 353.564577 
L 574.571962 356.345952 
L 574.571962 356.345952 
" clip-path="url(#pb3bc546750)" style="fill: none; stroke: #2e7d5b; stroke-width: 0.9; stroke-linecap: square"/>
   </g>
   <g id="line2d_76">
    <path d="M 52.76 313.636699 
L 602.28 313.636699 
" clip-path="url(#pb3bc546750)" style="fill: none; stroke-dasharray: 0.7,1.155; stroke-dashoffset: 0; stroke: #555555; stroke-width: 0.7"/>
   </g>
   <g id="line2d_77">
    <path d="M 52.76 358.347157 
L 602.28 358.347157 
" clip-path="url(#pb3bc546750)" style="fill: none; stroke-dasharray: 0.7,1.155; stroke-dashoffset: 0; stroke: #555555; stroke-width: 0.7"/>
   </g>
   <g id="line2d_78">
    <path d="M 218.325763 391.88 
L 218.325763 280.103856 
" clip-path="url(#pb3bc546750)" style="fill: none; stroke-dasharray: 2.96,1.28; stroke-dashoffset: 0; stroke: #b3403a; stroke-width: 0.8"/>
   </g>
   <g id="line2d_79">
    <path d="M 304.998689 391.88 
L 304.998689 280.103856 
" clip-path="url(#pb3bc546750)" style="fill: none; stroke-dasharray: 2.96,1.28; stroke-dashoffset: 0; stroke: #b3403a; stroke-width: 0.8"/>
   </g>
   <g id="patch_6">
    <path d="M 52.76 391.88 
L 52.76 280.103856 
" style="fill: none; stroke: #555555; stroke-width: 0.8; stroke-linejoin: miter; stroke-linecap: square"/>
   </g>
   <g id="patch_7">
    <path d="M 52.76 391.88 
L 602.28 391.88 
" style="fill: none; stroke: #555555; stroke-width: 0.8; stroke-linejoin: miter; stroke-linecap: square"/>
   </g>
   <g id="text_31">
    <text style="font-size: 8px; font-family: 'DejaVu Sans'; fill: #b3403a" transform="translate(224.325763 318.745594)">oversold, weekly 'up'</text>
    <text style="font-size: 8px; font-family: 'DejaVu Sans'; fill: #b3403a" transform="translate(224.325763 328.347157)">→ −12.6%</text>
   </g>
   <g id="text_32">
    <text style="font-size: 8px; font-family: 'DejaVu Sans'; fill: #b3403a" transform="translate(310.998689 318.745594)">oversold, weekly 'down'</text>
    <text style="font-size: 8px; font-family: 'DejaVu Sans'; fill: #b3403a" transform="translate(310.998689 328.347157)">→ +6.6%</text>
   </g>
  </g>
 </g>
 <defs>
  <clipPath id="p4f211da718">
   <rect x="52.76" y="23.64" width="549.52" height="239.52031"/>
  </clipPath>
  <clipPath id="pb3bc546750">
   <rect x="52.76" y="280.103856" width="549.52" height="111.776144"/>
  </clipPath>
 </defs>
</svg>
